<svg width="345" height="74" viewBox="0 0 345 74" fill="none" xmlns="http://www.w3.org/2000/svg">
<g clip-path="url(#clip0_788_314)">
<path fill-rule="evenodd" clip-rule="evenodd" d="M304.812 24.5469C302.043 37.6545 299.266 50.7535 296.489 63.8525C307.511 66.1778 326.139 70.4064 337.161 72.7402C334.694 70.1824 332.228 67.6333 329.77 65.0841C332.874 64.0592 335.979 63.0258 339.092 62.0009C339.101 61.9751 339.101 61.9407 339.11 61.9148L331.943 55.4902L341.102 52.519L341.136 52.364L333.961 45.9307L343.103 42.9768L335.893 36.5005L345 33.5551L344.672 33.2623L304.812 24.5469Z" fill="#146F84"/>
<path fill-rule="evenodd" clip-rule="evenodd" d="M318.938 61.002L296.532 63.6459L298.361 55.0251L318.938 61.002Z" fill="#074354"/>
<path fill-rule="evenodd" clip-rule="evenodd" d="M40.1885 25.8127C42.9655 38.9118 45.7424 52.0108 48.5194 65.1098C37.4891 67.4437 18.8696 71.6722 7.83934 73.9975C10.3058 71.4483 12.7723 68.8991 15.2389 66.3413C12.1255 65.3165 9.02085 64.2917 5.90753 63.2668C5.90753 63.2324 5.89891 63.2065 5.89029 63.1721L13.0656 56.7474L3.89811 53.7763L3.87224 53.6213L11.0389 47.1966L1.90593 44.2427L9.10709 37.7577L0 34.821L0.327717 34.5282L40.1885 25.8127Z" fill="#146F84"/>
<path fill-rule="evenodd" clip-rule="evenodd" d="M20.0596 24.2452C121.479 -8.09323 225.443 -8.04156 328.623 24.1591C326.26 35.5529 323.431 46.6798 319.791 61.2256C215.733 30.1445 126.602 31.2555 26.062 62.2591C24.0008 48.8156 21.5084 36.3194 20.0596 24.2452Z" fill="url(#paint0_linear_788_314)"/>
<path fill-rule="evenodd" clip-rule="evenodd" d="M26.0625 62.2592L48.468 64.9117L46.6483 56.291L26.0625 62.2592Z" fill="#074354"/>
<g filter="url(#filter0_d_788_314)">
<path d="M101.327 15.7147C100.671 15.8958 100.208 16.0764 99.9397 16.2564C99.6714 16.4364 99.5141 16.7051 99.4677 17.0627C99.4409 17.4161 99.5068 17.9644 99.6655 18.7077L102.773 33.2596C102.931 34.0029 103.095 34.5303 103.264 34.8419C103.452 35.1494 103.706 35.3305 104.024 35.3852C104.362 35.4357 104.858 35.4116 105.512 35.3129L105.637 35.8997C104.549 36.0707 103.007 36.3692 101.012 36.7952C98.9193 37.2421 97.3804 37.6013 96.3954 37.873L96.2701 37.2862C96.9659 37.0968 97.4577 36.9099 97.7456 36.7258C98.0531 36.5374 98.23 36.2645 98.2763 35.9069C98.3227 35.5493 98.2665 34.9989 98.1078 34.2557L94.8316 18.9115L91.7075 38.9046L91.2381 39.0049L79.2824 21.8021L82.283 35.8554C82.5294 37.0093 82.7698 37.8476 83.004 38.3702C83.2342 38.8733 83.572 39.2102 84.0174 39.3809C84.4587 39.5321 85.1299 39.5626 86.0309 39.4725L86.1562 40.0593C85.3809 40.1635 84.3184 40.3596 82.9689 40.6478C81.8931 40.8775 81.0485 41.0885 80.4352 41.2808L80.3099 40.694C80.9345 40.4584 81.3684 40.1919 81.6117 39.8946C81.8745 39.5931 82.0005 39.1776 81.9897 38.6482C81.9985 38.1146 81.8964 37.349 81.6834 36.3515L78.8644 23.1491C78.7057 22.4059 78.5322 21.8805 78.3439 21.5731C78.1751 21.2614 77.9217 21.0804 77.5837 21.0298C77.2652 20.9751 76.7791 20.9971 76.1253 21.0958L76 20.509C76.6384 20.4341 77.4955 20.2817 78.5713 20.052C80.3707 19.6678 81.9096 19.3086 83.188 18.9743L92.1651 31.9968L94.5315 16.6442L96.6145 16.1995C98.6096 15.7735 100.139 15.4163 101.202 15.1279L101.327 15.7147Z" fill="white"/>
<path d="M113.712 24.2095C116.828 23.8191 119.079 23.9865 120.466 24.7116C121.852 25.4367 122.646 26.5626 122.847 28.0894C123.32 31.6784 120.969 33.8139 115.794 34.4957C115.258 34.5662 114.791 34.6177 114.392 34.6501L110.878 35.0828C109.153 35.3101 107.829 35.5149 106.904 35.6972L106.826 35.1023C107.475 34.9764 107.941 34.8344 108.222 34.6763C108.524 34.5155 108.702 34.26 108.757 33.9099C108.831 33.5571 108.819 33.004 108.72 32.2505L107.168 20.4723C107.069 19.7188 106.937 19.1813 106.774 18.8599C106.63 18.5359 106.402 18.334 106.089 18.2542C105.776 18.1744 105.28 18.1591 104.6 18.2083L104.522 17.6134C105.462 17.5501 106.854 17.397 108.698 17.154C110.879 16.8667 112.55 16.6162 113.712 16.4025L113.791 16.9974C113.082 17.1311 112.567 17.2797 112.246 17.443C111.944 17.6038 111.756 17.8606 111.682 18.2133C111.607 18.5661 111.619 19.1192 111.719 19.8727L112.314 24.3936L113.712 24.2095ZM130.744 14.7637C130.095 14.8896 129.62 15.0329 129.318 15.1937C129.036 15.3519 128.858 15.6073 128.784 15.9601C128.729 16.3102 128.751 16.862 128.851 17.6155L130.402 29.3937C130.502 30.1472 130.623 30.686 130.767 31.01C130.93 31.3314 131.168 31.532 131.481 31.6118C131.814 31.689 132.311 31.7043 132.97 31.6577L133.049 32.2526C132.029 32.3263 130.558 32.4899 128.635 32.7433C126.553 33.0176 125.02 33.2499 124.036 33.44L123.958 32.8451C124.627 32.7166 125.102 32.5733 125.384 32.4151C125.666 32.257 125.834 32.0028 125.889 31.6527C125.963 31.2999 125.951 30.7468 125.852 29.9933L124.3 18.2151C124.201 17.4616 124.069 16.9242 123.906 16.6027C123.762 16.2787 123.534 16.0768 123.221 15.997C122.908 15.9172 122.412 15.9019 121.732 15.9511L121.654 15.3562C122.653 15.2851 124.194 15.1124 126.276 14.8381C128.199 14.5847 129.663 14.3616 130.666 14.1689L130.744 14.7637ZM115.333 33.9815C116.542 33.8222 117.355 33.3318 117.771 32.5104C118.207 31.6864 118.324 30.501 118.12 28.9544C117.929 27.5069 117.493 26.4145 116.811 25.6773C116.126 24.9203 115.02 24.6424 113.493 24.8435L112.393 24.9885L113.27 31.6509C113.365 32.3648 113.475 32.8949 113.601 33.2414C113.747 33.5852 113.948 33.8109 114.205 33.9183C114.461 34.0258 114.837 34.0469 115.333 33.9815Z" fill="white"/>
<path d="M163.169 12.6602C162.492 12.7376 162.007 12.8445 161.714 12.9808C161.421 13.1172 161.224 13.3584 161.123 13.7045C161.042 14.0495 161.022 14.6014 161.064 15.3602L161.719 27.2222C161.761 27.981 161.841 28.5274 161.959 28.8614C162.098 29.1943 162.32 29.4124 162.626 29.5157C162.953 29.6179 163.446 29.6707 164.107 29.6743L164.141 30.2734C163.219 30.2642 161.759 30.3147 159.762 30.4248C157.745 30.5361 156.179 30.6525 155.064 30.7741L155.031 30.1751C155.708 30.0977 156.193 29.9908 156.486 29.8544C156.779 29.7181 156.966 29.4774 157.047 29.1324C157.148 28.7863 157.178 28.2339 157.136 27.475L156.815 21.6639L149.117 22.0886L149.437 27.8997C149.479 28.6586 149.56 29.205 149.678 29.539C149.817 29.8719 150.039 30.0899 150.345 30.1932C150.671 30.2954 151.165 30.3483 151.826 30.3519L151.859 30.951C150.758 30.9517 149.188 31.0082 147.151 31.1206C145.194 31.2285 143.738 31.3389 142.783 31.4517L142.75 30.8526C143.427 30.7752 143.912 30.6683 144.204 30.532C144.497 30.3957 144.684 30.155 144.766 29.81C144.867 29.4639 144.896 28.9114 144.854 28.1526L144.2 16.2906C144.158 15.5318 144.068 14.9859 143.929 14.653C143.811 14.3191 143.588 14.101 143.262 13.9988C142.956 13.8955 142.472 13.8421 141.811 13.8385L141.778 13.2394C142.74 13.2464 144.2 13.196 146.157 13.088C148.193 12.9756 149.759 12.8592 150.854 12.7387L150.887 13.3378C150.211 13.4152 149.726 13.522 149.433 13.6584C149.14 13.7947 148.943 14.0359 148.842 14.382C148.761 14.727 148.741 15.2789 148.783 16.0378L149.084 21.4895L156.782 21.0648L156.481 15.6131C156.439 14.8542 156.349 14.3084 156.211 13.9755C156.092 13.6415 155.87 13.4234 155.544 13.3212C155.237 13.2179 154.754 13.1645 154.093 13.1609L154.06 12.5618C155.181 12.5601 156.75 12.5035 158.767 12.3922C160.764 12.2821 162.22 12.1717 163.136 12.0611L163.169 12.6602Z" fill="white"/>
<path d="M182.894 27.4925C183.49 28.7247 184.129 29.3563 184.809 29.3873L184.817 29.9872C183.856 29.9399 182.546 29.9273 180.886 29.9493C178.746 29.9776 177.167 30.0285 176.148 30.102L176.14 29.5021C176.799 29.4533 177.288 29.3469 177.606 29.1826C177.923 28.9984 178.079 28.7063 178.074 28.3064C178.069 27.9464 177.933 27.4982 177.666 26.9616L176.121 23.5618L169.822 23.6452L169.472 24.4599C168.93 25.7872 168.664 26.8209 168.673 27.5608C168.682 28.2407 168.909 28.7378 169.353 29.0519C169.797 29.3661 170.45 29.5374 171.31 29.566L171.318 30.166C170.177 30.1211 169.027 30.1063 167.867 30.1217C166.787 30.136 165.978 30.1767 165.439 30.2439L165.431 29.6439C165.909 29.5376 166.345 29.2318 166.739 28.7265C167.152 28.201 167.581 27.4252 168.028 26.3992L174.165 11.8267C174.326 11.8446 174.556 11.8515 174.856 11.8475C175.176 11.8433 175.406 11.8303 175.545 11.8084L182.894 27.4925ZM175.843 22.9654L172.876 16.4342L170.084 23.0417L175.843 22.9654Z" fill="white"/>
<path d="M204.574 9.01915C206.691 9.13323 208.515 9.66216 210.047 10.6059C211.598 11.5508 212.769 12.8657 213.56 14.5507C214.351 16.2157 214.686 18.1765 214.565 20.4333C214.446 22.6301 213.892 24.553 212.902 26.2022C211.912 27.8513 210.582 29.1015 208.914 29.953C207.266 30.8056 205.413 31.1764 203.356 31.0656C201.239 30.9515 199.405 30.422 197.854 29.4772C196.322 28.5334 195.161 27.229 194.369 25.564C193.579 23.879 193.244 21.9082 193.366 19.6514C193.484 17.4546 194.039 15.5317 195.029 13.8825C196.019 12.2334 197.338 10.9826 198.986 10.1301C200.655 9.27861 202.517 8.9083 204.574 9.01915ZM204.425 9.55191C203.327 9.49272 202.334 9.88987 201.447 10.7434C200.561 11.5769 199.845 12.7801 199.3 14.353C198.774 15.9271 198.456 17.7426 198.345 19.7996C198.233 21.8766 198.384 23.7174 198.799 25.322C199.233 26.9277 199.856 28.183 200.669 29.0881C201.501 29.9942 202.447 30.4758 203.505 30.5328C204.604 30.592 205.596 30.2048 206.482 29.3713C207.369 28.5178 208.075 27.304 208.601 25.73C209.146 24.1571 209.475 22.3421 209.585 20.2851C209.697 18.2081 209.536 16.3668 209.102 14.7611C208.688 13.1565 208.064 11.9011 207.232 10.995C206.419 10.09 205.484 9.60895 204.425 9.55191Z" fill="white"/>
<path d="M233.9 12.6082L221.528 31.3219L224.63 31.6618C226.18 31.8317 227.609 31.4651 228.915 30.562C230.241 29.6611 231.146 28.1004 231.631 25.88L232.317 25.9551C232.183 26.6245 232.057 27.496 231.94 28.5696C231.739 30.3987 231.643 31.9173 231.652 33.1254C230.187 32.9045 227.715 32.6035 224.236 32.2223C220.538 31.8171 217.861 31.5539 216.204 31.4327L216.27 30.8363L228.671 12.1258L225.451 11.7729C223.82 11.5943 222.427 11.9144 221.271 12.7334C220.135 13.5545 219.317 15.0543 218.817 17.2328L218.131 17.1576C218.253 16.5876 218.366 15.8354 218.468 14.901C218.614 13.569 218.71 12.0504 218.756 10.3453C220.062 10.5487 222.295 10.8236 225.456 11.1699C229.373 11.5991 232.209 11.8797 233.965 12.0117L233.9 12.6082Z" fill="white"/>
<path d="M248.684 13.8606C250.773 14.2223 252.522 14.9617 253.932 16.0787C255.362 17.1992 256.371 18.6424 256.958 20.4085C257.549 22.1549 257.651 24.1416 257.265 26.3684C256.89 28.5362 256.114 30.3808 254.937 31.9022C253.76 33.4237 252.293 34.5093 250.537 35.1591C248.8 35.8123 246.916 35.9631 244.886 35.6116C242.798 35.2498 241.038 34.5087 239.608 33.3883C238.198 32.2713 237.198 30.8396 236.607 29.0932C236.02 27.327 235.919 25.3306 236.305 23.1037C236.68 20.936 237.457 19.0914 238.634 17.5699C239.81 16.0484 241.267 14.9611 243.004 14.3079C244.761 13.6581 246.654 13.509 248.684 13.8606ZM248.474 14.3722C247.39 14.1845 246.357 14.4623 245.376 15.2058C244.398 15.9295 243.546 17.0404 242.82 18.5385C242.113 20.0399 241.584 21.8055 241.232 23.8353C240.878 25.8848 240.812 27.7306 241.035 29.3728C241.277 31.0183 241.749 32.3382 242.45 33.3323C243.17 34.3299 244.052 34.9191 245.097 35.1C246.181 35.2877 247.212 35.0197 248.189 34.2959C249.171 33.5525 250.015 32.43 250.721 30.9286C251.448 29.4305 251.986 27.6666 252.338 25.6368C252.693 23.5873 252.749 21.7398 252.506 20.0943C252.283 18.4521 251.812 17.1323 251.091 16.1347C250.391 15.1406 249.518 14.553 248.474 14.3722Z" fill="white"/>
<path d="M281.263 22.2628C280.599 22.1945 280.082 22.2366 279.712 22.3889C279.362 22.5463 279.063 22.8617 278.817 23.3352C278.59 23.8136 278.349 24.5467 278.094 25.5343L273.908 41.7424L273.218 41.5333L272.426 41.3597L263.946 22.128L261.065 33.282C260.77 34.4245 260.611 35.2818 260.587 35.854C260.568 36.4069 260.72 36.8592 261.042 37.211C261.369 37.5434 261.956 37.8705 262.803 38.1924L262.653 38.7734C261.912 38.5202 260.874 38.2211 259.538 37.876C258.473 37.6009 257.623 37.4124 256.989 37.3104L257.139 36.7295C257.803 36.7977 258.31 36.7531 258.66 36.5958C259.03 36.4434 259.329 36.128 259.555 35.6496C259.802 35.1761 260.052 34.4456 260.307 33.458L263.683 20.3869C263.874 19.6511 263.953 19.1035 263.922 18.7443C263.91 18.3901 263.764 18.1149 263.484 17.9187C263.224 17.7275 262.779 17.53 262.15 17.3262L262.3 16.7453C262.905 16.9634 263.74 17.21 264.805 17.4851C265.773 17.7352 266.613 17.9212 267.325 18.0432L274.988 34.8019L277.336 25.7103C277.631 24.5678 277.788 23.7201 277.807 23.1672C277.831 22.595 277.679 22.1427 277.352 21.8103C277.03 21.4585 276.445 21.1217 275.599 20.7998L275.749 20.2189C276.489 20.472 277.527 20.7712 278.863 21.1163C279.948 21.3964 280.798 21.5849 281.413 21.6818L281.263 22.2628Z" fill="white"/>
</g>
</g>
<defs>
<filter id="filter0_d_788_314" x="75" y="9" width="207.413" height="34.7424" filterUnits="userSpaceOnUse" color-interpolation-filters="sRGB">
<feFlood flood-opacity="0" result="BackgroundImageFix"/>
<feColorMatrix in="SourceAlpha" type="matrix" values="0 0 0 0 0 0 0 0 0 0 0 0 0 0 0 0 0 0 127 0" result="hardAlpha"/>
<feOffset dy="1"/>
<feGaussianBlur stdDeviation="0.5"/>
<feComposite in2="hardAlpha" operator="out"/>
<feColorMatrix type="matrix" values="0 0 0 0 0 0 0 0 0 0 0 0 0 0 0 0 0 0 0.5 0"/>
<feBlend mode="normal" in2="BackgroundImageFix" result="effect1_dropShadow_788_314"/>
<feBlend mode="normal" in="SourceGraphic" in2="effect1_dropShadow_788_314" result="shape"/>
</filter>
<linearGradient id="paint0_linear_788_314" x1="49.9998" y1="40.9995" x2="310.5" y2="39.4995" gradientUnits="userSpaceOnUse">
<stop stop-color="#0B4C5E"/>
<stop offset="0.5" stop-color="#146F84"/>
<stop offset="1" stop-color="#0B4C5E"/>
</linearGradient>
<clipPath id="clip0_788_314">
<rect width="345" height="74" fill="white"/>
</clipPath>
</defs>
</svg>
