<svg width="345" height="74" viewBox="0 0 345 74" fill="none" xmlns="http://www.w3.org/2000/svg">
<g clip-path="url(#clip0_788_194)">
<path fill-rule="evenodd" clip-rule="evenodd" d="M304.812 24.5469C302.043 37.6545 299.266 50.7535 296.489 63.8525C307.511 66.1778 326.139 70.4064 337.161 72.7402C334.694 70.1824 332.228 67.6333 329.77 65.0841C332.874 64.0592 335.979 63.0258 339.092 62.0009C339.101 61.9751 339.101 61.9407 339.11 61.9148L331.943 55.4902L341.102 52.519L341.136 52.364L333.961 45.9307L343.103 42.9768L335.893 36.5005L345 33.5551L344.672 33.2623L304.812 24.5469Z" fill="#146F84"/>
<path fill-rule="evenodd" clip-rule="evenodd" d="M318.938 61.002L296.532 63.6459L298.361 55.0251L318.938 61.002Z" fill="#074354"/>
<path fill-rule="evenodd" clip-rule="evenodd" d="M40.1885 25.8127C42.9655 38.9118 45.7424 52.0108 48.5194 65.1098C37.4891 67.4437 18.8696 71.6722 7.83934 73.9975C10.3058 71.4483 12.7723 68.8991 15.2389 66.3413C12.1255 65.3165 9.02085 64.2917 5.90753 63.2668C5.90753 63.2324 5.89891 63.2065 5.89029 63.1721L13.0656 56.7474L3.89811 53.7763L3.87224 53.6213L11.0389 47.1966L1.90593 44.2427L9.10709 37.7577L0 34.821L0.327717 34.5282L40.1885 25.8127Z" fill="#146F84"/>
<path fill-rule="evenodd" clip-rule="evenodd" d="M20.0596 24.2452C121.479 -8.09323 225.443 -8.04156 328.623 24.1591C326.26 35.5529 323.431 46.6798 319.791 61.2256C215.733 30.1445 126.602 31.2555 26.062 62.2591C24.0008 48.8156 21.5084 36.3194 20.0596 24.2452Z" fill="url(#paint0_linear_788_194)"/>
<path fill-rule="evenodd" clip-rule="evenodd" d="M26.0625 62.2592L48.468 64.9117L46.6483 56.291L26.0625 62.2592Z" fill="#074354"/>
<g filter="url(#filter0_d_788_194)">
<path d="M94.4383 35.7021L91.9445 36.0914L85.0343 17.5117L88.0918 36.725L85.8373 37.0762L82 12.9774L85.6211 12.4125L92.5081 31.061L93.1335 11.2446L96.7623 10.6798L100.592 34.7785L98.1366 35.1678L95.0482 15.7789L94.4383 35.7021ZM106.529 19.2445C108.405 19.0384 109.834 19.3742 110.822 20.2597C111.818 21.1452 112.42 22.5574 112.644 24.4963L112.968 27.4046C113.177 29.2519 112.922 30.748 112.204 31.8931C111.486 33.0304 110.212 33.7022 108.39 33.9083L103.271 34.4732L100.538 10.2217L103.14 9.93931L104.221 19.4964L106.529 19.2445ZM115.647 8.55766L118.388 32.8014L115.81 33.0915L113.076 8.8401L115.647 8.55766ZM108.112 31.4503C109.069 31.3434 109.726 30.9923 110.073 30.3893C110.42 29.7862 110.536 28.9389 110.413 27.8244L110.05 24.6031C109.911 23.4276 109.587 22.6184 109.062 22.1681C108.537 21.7253 107.78 21.5574 106.799 21.6643L104.499 21.9238L105.603 31.7251L108.112 31.4503ZM129.73 7.42791C131.568 7.29814 132.911 7.64928 133.761 8.48133C134.61 9.321 135.096 10.6416 135.235 12.4507L135.32 13.5957C135.413 14.8934 135.289 15.9545 134.95 16.7865C134.602 17.6109 133.93 18.2292 132.927 18.6262C134.093 18.8704 134.95 19.42 135.498 20.2902C136.046 21.1605 136.37 22.2673 136.463 23.6108L136.617 25.6642C136.756 27.4962 136.424 28.9313 135.621 29.9771C134.826 31.0305 133.506 31.6182 131.668 31.7557L126.264 32.145L124.465 7.80958L129.73 7.42791ZM129.862 17.8017C130.912 17.7254 131.684 17.443 132.178 16.9697C132.672 16.4888 132.873 15.6109 132.772 14.3362L132.672 12.9163C132.587 11.8248 132.332 11.0309 131.908 10.5424C131.475 10.0462 130.788 9.83244 129.846 9.90114L127.267 10.092L127.846 17.9468L129.862 17.8017ZM131.491 29.2824C133.344 29.1527 134.193 27.9847 134.031 25.7787L133.869 23.6261C133.768 22.2597 133.436 21.3284 132.873 20.8475C132.309 20.3666 131.452 20.1681 130.309 20.2444L128.032 20.4124L128.703 29.4885L131.491 29.2824ZM148.855 6.20656C150.669 6.1455 152.028 6.65694 152.931 7.74088C153.835 8.82483 154.321 10.2981 154.383 12.1606L154.46 14.3514L151.974 14.4354L151.889 12.0996C151.851 10.9851 151.604 10.1301 151.14 9.52711C150.685 8.9317 149.974 8.64926 149.009 8.6798C148.067 8.71033 147.388 9.0462 146.956 9.67214C146.531 10.3057 146.338 11.1759 146.376 12.2904L146.824 25.1833C146.863 26.2978 147.118 27.1527 147.589 27.7481C148.06 28.3511 148.762 28.6336 149.704 28.603C150.669 28.5725 151.364 28.2366 151.773 27.6107C152.19 26.9771 152.383 26.1069 152.345 24.9924L152.229 21.8246L154.723 21.733L154.823 24.7634C154.893 26.626 154.514 28.1221 153.688 29.2672C152.862 30.4122 151.542 31.0152 149.727 31.0763C147.928 31.1373 146.585 30.6259 145.682 29.542C144.778 28.458 144.3 26.9848 144.23 25.1298L143.79 12.5194C143.759 11.5881 143.836 10.7485 144.022 9.98511C144.207 9.22177 144.508 8.56529 144.933 8.01569C145.35 7.46608 145.882 7.03861 146.531 6.72564C147.187 6.41267 147.959 6.2371 148.855 6.20656ZM157.456 12.069C157.479 10.1836 157.942 8.69506 158.838 7.60348C159.741 6.5119 161.1 5.97756 162.915 6.00046C164.729 6.02336 166.08 6.58824 166.968 7.70272C167.848 8.8172 168.281 10.321 168.257 12.1988L168.095 24.8169C168.072 26.6794 167.609 28.1603 166.69 29.2595C165.779 30.3664 164.42 30.9083 162.598 30.8854C160.784 30.8625 159.44 30.29 158.568 29.1603C157.695 28.0382 157.271 26.542 157.294 24.6871L157.456 12.069ZM159.88 24.855C159.873 25.9695 160.089 26.8397 160.544 27.458C160.992 28.084 161.687 28.3969 162.629 28.4122C163.594 28.4198 164.304 28.1221 164.768 27.5115C165.223 26.9008 165.455 26.0382 165.47 24.9237L165.632 12.0309C165.648 10.9164 165.432 10.0462 164.991 9.42787C164.551 8.80193 163.849 8.48896 162.884 8.47369C161.942 8.46606 161.239 8.76376 160.768 9.37444C160.305 9.98511 160.058 10.8477 160.05 11.9622L159.88 24.855ZM180.927 34.2594L181.005 30.9847L170.744 30.7404L171.33 6.3516L173.924 6.41267L173.399 28.3282L179.182 28.4656L179.707 6.55007L182.371 6.61114L181.838 28.5954L183.622 28.6412L183.483 34.3205L180.927 34.2594ZM188.486 27.9313L188.339 31.3129L185.815 31.206L185.961 27.8244L188.486 27.9313ZM203.326 7.64165C205.14 7.78668 206.429 8.45079 207.194 9.63397C207.966 10.8172 208.275 12.3362 208.12 14.1835L207.943 16.3743L205.456 16.1758L205.649 13.8476C205.742 12.7331 205.595 11.8553 205.209 11.2065C204.823 10.5576 204.152 10.1912 203.187 10.1149C202.252 10.0385 201.534 10.2904 201.032 10.8706C200.538 11.4431 200.245 12.2904 200.152 13.3973L199.087 26.2519C198.994 27.3664 199.149 28.2443 199.542 28.8931C199.936 29.5496 200.608 29.9084 201.542 29.9847C202.507 30.061 203.233 29.8091 203.719 29.2366C204.206 28.6565 204.491 27.8092 204.584 26.7023L204.847 23.5344L207.333 23.7406L207.078 26.7634C206.923 28.6107 206.375 30.061 205.418 31.0992C204.468 32.145 203.086 32.5953 201.272 32.4427C199.488 32.2976 198.207 31.6411 197.434 30.458C196.67 29.2748 196.361 27.7557 196.516 25.9084L197.558 13.3286C197.635 12.4049 197.805 11.5729 198.083 10.8401C198.353 10.0996 198.732 9.48894 199.21 8.98513C199.697 8.48896 200.276 8.12256 200.963 7.88592C201.642 7.64928 202.43 7.57295 203.326 7.64165ZM218.69 20.1376L218.443 22.565L212.722 21.9925L211.842 30.6259L218.868 31.3282L218.621 33.7938L208.977 32.832L211.456 8.55003L221.099 9.51947L220.844 11.9774L213.81 11.2752L212.969 19.5651L218.69 20.1376ZM224.589 34.5571L227.407 12.8095L223.099 12.2599L223.415 9.80954L234.634 11.2294L234.317 13.6797L230.009 13.1377L227.198 34.8854L224.589 34.5571ZM241.096 26.3741C240.015 26.2062 239.135 26.3359 238.463 26.7558C237.791 27.1832 237.351 28.0687 237.135 29.4275L236.525 33.2136C236.394 34.0151 236.27 34.6106 236.139 35.0075C236.008 35.3968 235.838 35.7479 235.622 36.0685L232.997 35.6563C233.267 35.2747 233.468 34.8472 233.599 34.3587C233.738 33.8777 233.846 33.3663 233.931 32.8396L234.533 29.0916C234.742 27.7786 235.128 26.7329 235.699 25.939C236.27 25.1451 237.112 24.6718 238.224 24.5115C236.425 23.5726 235.738 21.7711 236.162 19.1071L236.479 17.1453C236.765 15.359 237.39 14.0537 238.347 13.2446C239.305 12.4278 240.71 12.1606 242.547 12.4507L247.728 13.2675L243.868 37.3662L241.274 36.954L242.926 26.6642L241.096 26.3741ZM242.223 14.9087C241.243 14.756 240.509 14.9239 240.015 15.4048C239.513 15.8934 239.173 16.6873 238.996 17.7865L238.625 20.0994C238.417 21.4047 238.563 22.3284 239.073 22.8627C239.575 23.4047 240.339 23.7482 241.358 23.9085L243.32 24.2215L244.748 15.3056L242.223 14.9087ZM254.214 28.458L248.415 38.1067L245.968 37.6639L252.932 26.1298L250.716 13.7179L253.403 14.2064L255.194 24.4505L260.583 15.5041L263 15.9468L256.507 26.7787L258.846 39.9998L256.128 39.5036L254.214 28.458Z" fill="#FEFEFE"/>
</g>
</g>
<defs>
<filter id="filter0_d_788_194" x="81" y="5.99976" width="183" height="36" filterUnits="userSpaceOnUse" color-interpolation-filters="sRGB">
<feFlood flood-opacity="0" result="BackgroundImageFix"/>
<feColorMatrix in="SourceAlpha" type="matrix" values="0 0 0 0 0 0 0 0 0 0 0 0 0 0 0 0 0 0 127 0" result="hardAlpha"/>
<feOffset dy="1"/>
<feGaussianBlur stdDeviation="0.5"/>
<feComposite in2="hardAlpha" operator="out"/>
<feColorMatrix type="matrix" values="0 0 0 0 0 0 0 0 0 0 0 0 0 0 0 0 0 0 0.25 0"/>
<feBlend mode="normal" in2="BackgroundImageFix" result="effect1_dropShadow_788_194"/>
<feBlend mode="normal" in="SourceGraphic" in2="effect1_dropShadow_788_194" result="shape"/>
</filter>
<linearGradient id="paint0_linear_788_194" x1="49.9998" y1="40.9995" x2="310.5" y2="39.4995" gradientUnits="userSpaceOnUse">
<stop stop-color="#0B4C5E"/>
<stop offset="0.5" stop-color="#146F84"/>
<stop offset="1" stop-color="#0B4C5E"/>
</linearGradient>
<clipPath id="clip0_788_194">
<rect width="345" height="74" fill="white"/>
</clipPath>
</defs>
</svg>
