<svg width="77" height="32" viewBox="0 0 77 32" fill="none" xmlns="http://www.w3.org/2000/svg">
<path d="M32.8567 16.0003C32.8567 14.0318 32.4734 12.1547 31.8059 10.4131C31.6294 16.1449 25.6483 20.5828 22.1361 23.5191H30.9264C32.1554 21.2772 32.8567 18.7187 32.8567 16.0003ZM26.5021 3.37932C23.7186 1.26902 20.2291 0 16.4286 0C7.3552 0 0 7.16368 0 16.0003C0 24.8363 7.3552 32 16.4286 32C20.5833 32 24.3663 30.4859 27.2593 28.0086H15.3657L15.3295 24.6066C22.496 18.5389 26.8889 14.4351 26.8889 10.4715C26.8889 8.99885 26.3128 7.13985 23.7203 7.13985C21.6678 7.13985 19.6869 8.29825 20.0468 13.1378H15.8701C14.8257 7.52617 17.9587 3.07128 23.9358 3.07128C24.8625 3.07128 25.7199 3.17907 26.5021 3.37932Z" fill="#A3C626"/>
<path d="M48.0939 11.0586H51.9794C52.1122 8.18018 51.1162 3.61864 44.7064 3.61864C39.9903 3.61864 36.5689 6.36884 36.5689 12.0939C36.5689 12.8705 36.6021 16.8812 36.6021 19.3722C36.6021 25.5834 41.02 26.9414 44.7396 26.9414C46.9651 26.9414 50.1866 26.4558 51.6806 24.8714V14.9729H44.3738V18.5632H47.6291V22.9307C45.1712 23.7391 40.6874 24.0625 40.6874 18.5632V12.0939C40.6874 8.24428 42.514 6.91797 44.5398 6.91797C46.6325 6.91797 48.0939 7.95327 48.0939 11.0586ZM76.998 20.6656C77.1635 11.8029 66.7353 14.7459 66.8343 9.79695C66.8675 8.05084 68.0301 6.91797 69.9236 6.91797C71.9494 6.91797 73.1446 8.08261 73.1114 11.1238H76.9311C77.0307 8.37363 76.3667 3.68331 70.0564 3.68331C66.1371 3.68331 62.9161 5.55989 62.8491 9.73284C62.6831 18.2393 73.1783 15.4579 73.0123 20.6015C72.9454 22.7038 71.3844 23.6415 69.6242 23.6415C67.5653 23.6415 65.9047 22.4775 66.2373 18.9836H62.3838C61.9522 23.6098 64.0449 26.9097 69.5916 26.9097C74.2739 26.9097 76.9311 24.3858 76.998 20.6656Z" fill="#434242"/>
<path d="M55.656 3.72093H59.4685V26.7907H55.656V3.72093Z" fill="#434242"/>
</svg>
