<svg width="27" height="27" viewBox="0 0 27 27" fill="none" xmlns="http://www.w3.org/2000/svg">
<path d="M13.3434 13.3433C13.3434 13.3433 14.3579 8.21345 12.4516 4.91207C10.5452 1.61069 6.67179 1.78759 6.67179 1.78759C6.67179 1.78759 4.5812 5.05368 6.48756 8.3555C8.39393 11.6573 13.3434 13.3433 13.3434 13.3433Z" fill="url(#paint0_linear_591_20)"/>
<path d="M13.3435 13.3433C13.3435 13.3433 11.6571 8.39334 8.3557 6.4874C5.05432 4.58147 1.7878 6.67162 1.7878 6.67162C1.7878 6.67162 1.61046 10.5455 4.91228 12.4514C8.21409 14.3574 13.3435 13.3433 13.3435 13.3433Z" fill="url(#paint1_linear_591_20)"/>
<path d="M13.3435 13.3433C13.3435 13.3433 8.21365 12.3287 4.91227 14.2351C1.61088 16.1415 1.78779 20.0149 1.78779 20.0149C1.78779 20.0149 5.05388 22.1055 8.35569 20.1991C11.6575 18.2928 13.3435 13.3433 13.3435 13.3433Z" fill="url(#paint2_linear_591_20)"/>
<path d="M13.3432 13.3433C13.3432 13.3433 8.39331 15.0297 6.48737 18.3311C4.58144 21.6325 6.67159 24.899 6.67159 24.899C6.67159 24.899 10.5454 25.0763 12.4514 21.7745C14.3573 18.4727 13.3432 13.3433 13.3432 13.3433Z" fill="url(#paint3_linear_591_20)"/>
<path d="M13.3434 13.3433C13.3434 13.3433 12.3289 18.4732 14.2353 21.7745C16.1416 25.0759 20.0151 24.899 20.0151 24.899C20.0151 24.899 22.1056 21.6329 20.1993 18.3311C18.2929 15.0293 13.3434 13.3433 13.3434 13.3433Z" fill="url(#paint4_linear_591_20)"/>
<path d="M13.3433 13.3433C13.3433 13.3433 15.0297 18.2932 18.3311 20.1992C21.6324 22.1051 24.899 20.0149 24.899 20.0149C24.899 20.0149 25.0763 16.1411 21.7745 14.2351C18.4727 12.3292 13.3433 13.3433 13.3433 13.3433Z" fill="url(#paint5_linear_591_20)"/>
<path d="M13.3433 13.3433C13.3433 13.3433 18.4731 14.3579 21.7745 12.4515C25.0759 10.5451 24.899 6.67171 24.899 6.67171C24.899 6.67171 21.6329 4.58112 18.3311 6.48749C15.0292 8.39385 13.3433 13.3433 13.3433 13.3433Z" fill="url(#paint6_linear_591_20)"/>
<path d="M13.3433 13.3433C13.3433 13.3433 18.2932 11.6569 20.1991 8.35551C22.105 5.05412 20.0149 1.7876 20.0149 1.7876C20.0149 1.7876 16.141 1.61027 14.2351 4.91208C12.3292 8.2139 13.3433 13.3433 13.3433 13.3433Z" fill="url(#paint7_linear_591_20)"/>
<path d="M13.3433 13.3433C13.3433 13.3433 16.7868 9.4079 16.7868 5.5956C16.7868 1.78329 13.3433 3.05176e-05 13.3433 3.05176e-05C13.3433 3.05176e-05 9.8999 1.78329 9.8999 5.5956C9.8999 9.4079 13.3433 13.3433 13.3433 13.3433Z" fill="url(#paint8_linear_591_20)"/>
<path d="M13.3433 13.3433C13.3433 13.3433 9.40787 9.89987 5.59557 9.89987C1.78326 9.89987 0 13.3433 0 13.3433C0 13.3433 1.78326 16.7867 5.59557 16.7867C9.40787 16.7867 13.3433 13.3433 13.3433 13.3433Z" fill="url(#paint9_linear_591_20)"/>
<path d="M13.3433 13.3433C13.3433 13.3433 9.8999 17.2787 9.8999 21.091C9.8999 24.9033 13.3433 26.6866 13.3433 26.6866C13.3433 26.6866 16.7868 24.9033 16.7868 21.091C16.7868 17.2787 13.3433 13.3433 13.3433 13.3433Z" fill="url(#paint10_linear_591_20)"/>
<path d="M13.3433 13.3433C13.3433 13.3433 17.2787 16.7867 21.091 16.7867C24.9033 16.7867 26.6865 13.3433 26.6865 13.3433C26.6865 13.3433 24.9033 9.89987 21.091 9.89987C17.2787 9.89987 13.3433 13.3433 13.3433 13.3433Z" fill="url(#paint11_linear_591_20)"/>
<defs>
<linearGradient id="paint0_linear_591_20" x1="6.12669" y1="13.4208" x2="13.0866" y2="3.16344" gradientUnits="userSpaceOnUse">
<stop stop-color="#1A6478"/>
<stop offset="1" stop-color="#269DB7"/>
</linearGradient>
<linearGradient id="paint1_linear_591_20" x1="2.42927" y1="13.666" x2="5.40594" y2="4.34152" gradientUnits="userSpaceOnUse">
<stop stop-color="#1A6478"/>
<stop offset="1" stop-color="#269DB7"/>
</linearGradient>
<linearGradient id="paint2_linear_591_20" x1="2.42927" y1="21.0543" x2="5.40618" y2="11.7295" gradientUnits="userSpaceOnUse">
<stop stop-color="#1A6478"/>
<stop offset="1" stop-color="#269DB7"/>
</linearGradient>
<linearGradient id="paint3_linear_591_20" x1="6.12667" y1="24.9782" x2="13.0867" y2="14.7211" gradientUnits="userSpaceOnUse">
<stop stop-color="#1A6478"/>
<stop offset="1" stop-color="#269DB7"/>
</linearGradient>
<linearGradient id="paint4_linear_591_20" x1="13.5149" y1="24.9782" x2="20.4748" y2="14.7208" gradientUnits="userSpaceOnUse">
<stop stop-color="#1A6478"/>
<stop offset="1" stop-color="#269DB7"/>
</linearGradient>
<linearGradient id="paint5_linear_591_20" x1="13.9864" y1="21.0542" x2="16.9631" y2="11.7297" gradientUnits="userSpaceOnUse">
<stop stop-color="#1A6478"/>
<stop offset="1" stop-color="#269DB7"/>
</linearGradient>
<linearGradient id="paint6_linear_591_20" x1="13.9864" y1="13.6662" x2="16.9633" y2="4.34143" gradientUnits="userSpaceOnUse">
<stop stop-color="#1A6478"/>
<stop offset="1" stop-color="#269DB7"/>
</linearGradient>
<linearGradient id="paint7_linear_591_20" x1="13.5149" y1="13.4208" x2="20.4749" y2="3.16373" gradientUnits="userSpaceOnUse">
<stop stop-color="#1A6478"/>
<stop offset="1" stop-color="#269DB7"/>
</linearGradient>
<linearGradient id="paint8_linear_591_20" x1="10.2831" y1="13.4328" x2="18.8844" y2="3.89443" gradientUnits="userSpaceOnUse">
<stop stop-color="#1A6478"/>
<stop offset="1" stop-color="#269DB7"/>
</linearGradient>
<linearGradient id="paint9_linear_591_20" x1="0.742514" y1="16.8329" x2="2.76978" y2="8.39364" gradientUnits="userSpaceOnUse">
<stop stop-color="#1A6478"/>
<stop offset="1" stop-color="#269DB7"/>
</linearGradient>
<linearGradient id="paint10_linear_591_20" x1="10.2831" y1="26.7761" x2="18.8844" y2="17.2377" gradientUnits="userSpaceOnUse">
<stop stop-color="#1A6478"/>
<stop offset="1" stop-color="#269DB7"/>
</linearGradient>
<linearGradient id="paint11_linear_591_20" x1="14.0858" y1="16.8329" x2="16.113" y2="8.39364" gradientUnits="userSpaceOnUse">
<stop stop-color="#1A6478"/>
<stop offset="1" stop-color="#269DB7"/>
</linearGradient>
</defs>
</svg>
