<svg width="18" height="18" viewBox="0 0 18 18" fill="none" xmlns="http://www.w3.org/2000/svg">
<path d="M15.4322 0.300475C15.8327 -0.100158 16.4819 -0.100159 16.8824 0.300474C17.2828 0.701108 17.2828 1.35066 16.8824 1.7513L1.75047 16.8822C1.35003 17.2828 0.700779 17.2828 0.300334 16.8822C-0.100111 16.4816 -0.100111 15.832 0.300334 15.4314L15.4322 0.300475Z" fill="#0B4C5E"/>
<path d="M15.4322 0.300475C15.8327 -0.100158 16.4819 -0.100159 16.8824 0.300474C17.2828 0.701108 17.2828 1.35066 16.8824 1.7513L1.75047 16.8822C1.35003 17.2828 0.700779 17.2828 0.300334 16.8822C-0.100111 16.4816 -0.100111 15.832 0.300334 15.4314L15.4322 0.300475Z" fill="#0B4C5E"/>
<path d="M1.75048 0.300475C1.35003 -0.100158 0.700779 -0.100159 0.300334 0.300474C-0.100111 0.701108 -0.100111 1.35066 0.300334 1.7513L15.4322 16.8822C15.8327 17.2828 16.4819 17.2828 16.8824 16.8822C17.2828 16.4816 17.2828 15.832 16.8824 15.4314L1.75048 0.300475Z" fill="#0B4C5E"/>
<path d="M1.75048 0.300475C1.35003 -0.100158 0.700779 -0.100159 0.300334 0.300474C-0.100111 0.701108 -0.100111 1.35066 0.300334 1.7513L15.4322 16.8822C15.8327 17.2828 16.4819 17.2828 16.8824 16.8822C17.2828 16.4816 17.2828 15.832 16.8824 15.4314L1.75048 0.300475Z" fill="#0B4C5E"/>
</svg>
