<svg width="25" height="25" viewBox="0 0 25 25" fill="none" xmlns="http://www.w3.org/2000/svg">
<path d="M11.1808 23.5953L11.8262 23.9773L11.1808 23.5953ZM11.4835 23.0839L10.8381 22.7019H10.8381L11.4835 23.0839ZM8.84966 23.0839L9.49508 22.7019L9.49508 22.7019L8.84966 23.0839ZM9.15234 23.5953L8.50692 23.9773H8.50692L9.15234 23.5953ZM1.18848 18.4859L1.88139 18.1989H1.88139L1.18848 18.4859ZM5.83744 21.3492L5.86142 20.5995H5.86142L5.83744 21.3492ZM3.71406 21.0115L3.42705 21.7044H3.42705L3.71406 21.0115ZM19.1447 18.4859L19.8376 18.7729L19.8376 18.7729L19.1447 18.4859ZM14.4957 21.3492L14.4717 20.5995L14.4957 21.3492ZM16.6191 21.0115L16.9061 21.7044L16.6191 21.0115ZM17.2716 6.18768L17.6635 5.5482V5.5482L17.2716 6.18768ZM18.8122 7.72835L19.4517 7.33648V7.33648L18.8122 7.72835ZM3.06159 6.18768L2.66972 5.5482L2.66972 5.5482L3.06159 6.18768ZM1.52093 7.72835L0.88145 7.33648H0.88145L1.52093 7.72835ZM7.73569 21.6261L7.35385 22.2716L7.73569 21.6261ZM11.8262 23.9773L12.1289 23.4659L10.8381 22.7019L10.5354 23.2132L11.8262 23.9773ZM8.20425 23.4659L8.50692 23.9773L9.79775 23.2132L9.49508 22.7019L8.20425 23.4659ZM10.5354 23.2132C10.3748 23.4845 9.9583 23.4845 9.79775 23.2132L8.50692 23.9773C9.24829 25.2298 11.0848 25.2298 11.8262 23.9773L10.5354 23.2132ZM8.76659 6.25H11.5666V4.75H8.76659V6.25ZM18.7499 13.4334V14.3667H20.2499V13.4334H18.7499ZM1.58325 14.3667V13.4334H0.083252V14.3667H1.58325ZM0.083252 14.3667C0.083252 15.4436 0.0828458 16.2889 0.129395 16.9712C0.176404 17.6601 0.273794 18.2375 0.495571 18.7729L1.88139 18.1989C1.74794 17.8767 1.66771 17.4817 1.62592 16.8691C1.58366 16.2497 1.58325 15.4642 1.58325 14.3667H0.083252ZM5.86142 20.5995C4.93414 20.5699 4.41285 20.4892 4.00108 20.3186L3.42705 21.7044C4.1015 21.9838 4.85057 22.068 5.81346 22.0988L5.86142 20.5995ZM0.495571 18.7729C1.04533 20.1002 2.09981 21.1546 3.42705 21.7044L4.00108 20.3186C3.04138 19.9211 2.27891 19.1586 1.88139 18.1989L0.495571 18.7729ZM18.7499 14.3667C18.7499 15.4642 18.7495 16.2497 18.7073 16.8691C18.6655 17.4817 18.5852 17.8767 18.4518 18.1989L19.8376 18.7729C20.0594 18.2375 20.1568 17.6601 20.2038 16.9712C20.2503 16.2889 20.2499 15.4436 20.2499 14.3667H18.7499ZM14.5197 22.0988C15.4826 22.068 16.2317 21.9838 16.9061 21.7044L16.3321 20.3186C15.9203 20.4892 15.399 20.5699 14.4717 20.5995L14.5197 22.0988ZM18.4518 18.1989C18.0543 19.1586 17.2918 19.9211 16.3321 20.3186L16.9061 21.7044C18.2334 21.1546 19.2878 20.1002 19.8376 18.7729L18.4518 18.1989ZM11.5666 6.25C13.1087 6.25 14.2126 6.25079 15.073 6.33259C15.9221 6.41333 16.4563 6.56767 16.8797 6.82716L17.6635 5.5482C16.9647 5.12001 16.1739 4.93051 15.215 4.83933C14.2671 4.74921 13.0797 4.75 11.5666 4.75V6.25ZM20.2499 13.4334C20.2499 11.9203 20.2507 10.7328 20.1606 9.78499C20.0694 8.82601 19.8799 8.03522 19.4517 7.33648L18.1728 8.12022C18.4322 8.54367 18.5866 9.07779 18.6673 9.92697C18.7491 10.7873 18.7499 11.8912 18.7499 13.4334H20.2499ZM16.8797 6.82716C17.4067 7.15011 17.8498 7.59321 18.1728 8.12022L19.4517 7.33648C19.0051 6.60763 18.3923 5.99484 17.6635 5.5482L16.8797 6.82716ZM8.76659 4.75C7.25351 4.75 6.06603 4.74921 5.11822 4.83933C4.15925 4.93051 3.36846 5.12001 2.66972 5.5482L3.45347 6.82716C3.87691 6.56767 4.41102 6.41333 5.2602 6.33259C6.12054 6.25079 7.22446 6.25 8.76659 6.25V4.75ZM1.58325 13.4334C1.58325 11.8912 1.58404 10.7873 1.66584 9.92697C1.74658 9.07779 1.90092 8.54367 2.16041 8.12022L0.88145 7.33648C0.453261 8.03522 0.263759 8.82601 0.172579 9.78499C0.0824607 10.7328 0.083252 11.9203 0.083252 13.4334H1.58325ZM2.66972 5.5482C1.94087 5.99484 1.32809 6.60763 0.88145 7.33648L2.16041 8.12022C2.48336 7.59321 2.92646 7.15011 3.45347 6.82716L2.66972 5.5482ZM9.49508 22.7019C9.25963 22.3041 9.05751 21.9611 8.86248 21.6926C8.65854 21.4118 8.43018 21.1655 8.11753 20.9805L7.35385 22.2716C7.42755 22.3152 7.51364 22.388 7.64883 22.5741C7.79293 22.7725 7.95463 23.0442 8.20425 23.4659L9.49508 22.7019ZM5.81346 22.0988C6.33091 22.1153 6.66965 22.1269 6.92884 22.1585C7.17623 22.1887 7.28477 22.2307 7.35385 22.2716L8.11753 20.9805C7.80025 20.7929 7.46363 20.7126 7.11046 20.6695C6.76911 20.6279 6.3519 20.6152 5.86142 20.5995L5.81346 22.0988ZM12.1289 23.4659C12.3785 23.0442 12.5402 22.7725 12.6843 22.5741C12.8195 22.388 12.9056 22.3152 12.9793 22.2716L12.2156 20.9805C11.9029 21.1655 11.6746 21.4118 11.4707 21.6926C11.2756 21.9611 11.0735 22.3041 10.8381 22.7019L12.1289 23.4659ZM14.4717 20.5995C13.9812 20.6152 13.564 20.6279 13.2227 20.6695C12.8695 20.7126 12.5329 20.7929 12.2156 20.9805L12.9793 22.2716C13.0484 22.2307 13.1569 22.1887 13.4043 22.1585C13.6635 22.1269 14.0022 22.1153 14.5197 22.0988L14.4717 20.5995Z" fill="#177B91"/>
<path d="M23.8335 13.0076L24.5264 13.2946V13.2946L23.8335 13.0076ZM21.4658 15.3754L21.7528 16.0683L21.7528 16.0683L21.4658 15.3754ZM22.0775 1.47805L21.6856 2.11752L22.0775 1.47805ZM23.5218 2.92242L24.1613 2.53055V2.53055L23.5218 2.92242ZM8.75559 1.47805L8.36372 0.838566V0.838566L8.75559 1.47805ZM7.31122 2.92242L6.67174 2.53055H6.67174L7.31122 2.92242ZM14.104 1.58334H16.729V0.0833435H14.104V1.58334ZM23.4165 8.27087V9.14588H24.9165V8.27087H23.4165ZM23.4165 9.14588C23.4165 10.1754 23.4161 10.91 23.3766 11.4886C23.3376 12.0606 23.2629 12.4252 23.1406 12.7206L24.5264 13.2946C24.7371 12.786 24.8289 12.2391 24.8732 11.5907C24.9169 10.9492 24.9165 10.1549 24.9165 9.14588H23.4165ZM23.1406 12.7206C22.7727 13.6089 22.067 14.3146 21.1787 14.6825L21.7528 16.0683C23.0085 15.5481 24.0062 14.5504 24.5264 13.2946L23.1406 12.7206ZM16.729 1.58334C18.1757 1.58334 19.208 1.58413 20.0118 1.66056C20.8045 1.73593 21.2972 1.87953 21.6856 2.11752L22.4693 0.838566C21.8057 0.431864 21.0563 0.253106 20.1538 0.167299C19.2625 0.0825522 18.1466 0.0833435 16.729 0.0833435V1.58334ZM24.9165 8.27087C24.9165 6.85326 24.9173 5.73739 24.8326 4.84608C24.7468 3.94361 24.568 3.19422 24.1613 2.53055L22.8823 3.31429C23.1203 3.70267 23.2639 4.19539 23.3393 4.98806C23.4157 5.7919 23.4165 6.82422 23.4165 8.27087H24.9165ZM21.6856 2.11752C22.1733 2.41643 22.5834 2.82653 22.8823 3.31429L24.1613 2.53055C23.7387 1.84095 23.1589 1.26115 22.4693 0.838566L21.6856 2.11752ZM14.104 0.0833435C12.6864 0.0833435 11.5705 0.0825522 10.6792 0.167299C9.77677 0.253106 9.02739 0.431864 8.36372 0.838566L9.14747 2.11752C9.53585 1.87953 10.0286 1.73593 10.8212 1.66056C11.6251 1.58413 12.6574 1.58334 14.104 1.58334V0.0833435ZM8.36372 0.838566C7.67412 1.26115 7.09433 1.84095 6.67174 2.53055L7.9507 3.31429C8.24961 2.82653 8.6597 2.41643 9.14747 2.11752L8.36372 0.838566ZM7.45431 5.53897C7.51287 4.41323 7.65973 3.78912 7.9507 3.31429L6.67174 2.53055C6.17861 3.33527 6.01819 4.27182 5.95633 5.46105L7.45431 5.53897ZM19.5248 16.4407C20.4161 16.4111 21.1181 16.3312 21.7528 16.0683L21.1788 14.6825C20.8047 14.8374 20.3284 14.9132 19.475 14.9415L19.5248 16.4407Z" fill="#177B91"/>
<path d="M7.25008 13.6667C7.25008 14.311 6.72775 14.8333 6.08341 14.8333C5.43908 14.8333 4.91675 14.311 4.91675 13.6667C4.91675 13.0223 5.43908 12.5 6.08341 12.5C6.72775 12.5 7.25008 13.0223 7.25008 13.6667Z" fill="#177B91"/>
<path d="M11.3334 13.6667C11.3334 14.311 10.8111 14.8333 10.1667 14.8333C9.52242 14.8333 9.00008 14.311 9.00008 13.6667C9.00008 13.0223 9.52242 12.5 10.1667 12.5C10.8111 12.5 11.3334 13.0223 11.3334 13.6667Z" fill="#177B91"/>
<path d="M15.4167 13.6667C15.4167 14.311 14.8944 14.8333 14.2501 14.8333C13.6057 14.8333 13.0834 14.311 13.0834 13.6667C13.0834 13.0223 13.6057 12.5 14.2501 12.5C14.8944 12.5 15.4167 13.0223 15.4167 13.6667Z" fill="#177B91"/>
</svg>
