<svg width="104" height="73" viewBox="0 0 104 73" fill="none" xmlns="http://www.w3.org/2000/svg">
<g clip-path="url(#clip0_651_26)">
<path fill-rule="evenodd" clip-rule="evenodd" d="M0.498047 24.1167H41.2709L46.5777 31.7563L52.5917 24.1167H94.7825V49.2539H54.7853L45.5162 37.37L36.5302 49.2539H0.498047V24.1167Z" fill="#2B2A29"/>
<path d="M18.5534 38.9912H11.779V33.083H10.3379V40.2878H18.5534V38.9912ZM33.8605 33.083H32.419V38.9912H25.2123V33.083H23.7712V38.9912C23.7712 38.9912 23.7712 40.2878 25.0685 40.2878H32.5633C33.9037 40.2878 33.8605 38.9912 33.8605 38.9912V33.083ZM66.6075 33.083H59.1127C57.8155 33.083 57.8155 34.3796 57.8155 34.3796V40.2878H59.2565V37.9822H66.4632V40.2878H67.9047V34.3796C67.9047 34.3796 67.9048 33.083 66.6075 33.083ZM59.2565 34.3796H66.4632V36.6852H59.2565V34.3796ZM84.941 40.2878L83.2115 37.9822C84.653 37.9822 84.653 36.6852 84.653 36.6852V34.3796C84.653 34.3796 84.653 33.083 83.2115 33.083H74.5637V40.2878H76.0048V37.9822H81.6261L83.3557 40.2878H84.941ZM83.2115 36.6852H76.0048V34.3796H83.2115V36.6852Z" fill="#FEFEFE"/>
<path d="M103.924 47.4385C103.924 47.7465 103.881 48.0284 103.795 48.285C103.71 48.5417 103.537 48.749 103.276 48.9072C103.015 49.0653 102.619 49.1446 102.089 49.1446H97.791C97.3291 49.1446 96.9761 49.0592 96.7325 48.888C96.4885 48.7168 96.322 48.4842 96.2318 48.1888C96.1421 47.8938 96.0972 47.554 96.0972 47.1693C96.0972 46.7841 96.1442 46.4443 96.2384 46.1494C96.3325 45.8544 96.4994 45.6213 96.7386 45.4501C96.9783 45.2793 97.3291 45.1939 97.791 45.1939H98.7915V46.1559H97.7653C97.4659 46.1559 97.2415 46.1986 97.0916 46.284C96.9421 46.3694 96.8436 46.487 96.7966 46.6369C96.7495 46.7863 96.726 46.9597 96.726 47.1562C96.726 47.3531 96.7495 47.5261 96.7966 47.676C96.8436 47.8254 96.9421 47.943 97.0916 48.0284C97.2415 48.1143 97.4659 48.157 97.7653 48.157H102.282C102.589 48.157 102.818 48.1143 102.968 48.0284C103.117 47.943 103.216 47.8254 103.263 47.676C103.31 47.5261 103.333 47.3531 103.333 47.1562C103.333 46.8656 103.244 46.626 103.064 46.4378C102.884 46.25 102.624 46.1559 102.282 46.1559H100.729V47.0408H100.139V45.1939H103.782V45.9376L103.089 45.989C103.141 46.0147 103.19 46.0426 103.237 46.0722C103.284 46.1023 103.325 46.1302 103.359 46.1559C103.522 46.267 103.656 46.4251 103.763 46.6303C103.87 46.8356 103.924 47.1048 103.924 47.4385ZM103.782 43.8852H96.2V41.397C96.2 40.9435 96.3046 40.5866 96.5142 40.3257C96.7238 40.0651 97.0423 39.9344 97.4703 39.9344H98.676C99.1122 39.9344 99.4543 40.0586 99.7027 40.3065C99.9506 40.5544 100.083 40.9008 100.1 41.3456C100.118 41.0633 100.212 40.8559 100.382 40.7234C100.554 40.591 100.819 40.4734 101.178 40.3705L103.782 39.6138V40.6912L101.242 41.3456C101.088 41.3883 100.943 41.4397 100.806 41.4994C100.669 41.5595 100.56 41.6318 100.479 41.7177C100.397 41.8031 100.357 41.9185 100.357 42.064V42.8591H103.782V43.8852ZM99.6639 42.8591V41.8588C99.6639 41.5421 99.5872 41.3051 99.433 41.1469C99.2791 40.9883 99.0142 40.9095 98.6377 40.9095H97.6367C97.3291 40.9095 97.1068 40.9844 96.9696 41.1339C96.8327 41.2837 96.7643 41.4654 96.7643 41.6789V42.8591H99.6639ZM103.937 36.7022C103.937 37.0869 103.892 37.4245 103.802 37.7155C103.712 38.0061 103.526 38.237 103.244 38.4083C102.961 38.579 102.538 38.6644 101.973 38.6644H97.791C97.3204 38.6644 96.9635 38.579 96.7194 38.4083C96.4758 38.237 96.3111 38.004 96.2257 37.709C96.1399 37.414 96.0972 37.0742 96.0972 36.6891C96.0972 36.3044 96.1421 35.9646 96.2318 35.6696C96.322 35.3742 96.4863 35.1416 96.726 34.9703C96.9657 34.7996 97.3204 34.7137 97.791 34.7137H101.973C102.547 34.7137 102.972 34.7996 103.25 34.9703C103.528 35.1416 103.712 35.3764 103.802 35.6757C103.892 35.975 103.937 36.317 103.937 36.7022ZM103.333 36.7022C103.333 36.5052 103.308 36.3323 103.256 36.1824C103.205 36.033 103.105 35.9153 102.955 35.8299C102.805 35.7441 102.581 35.7014 102.282 35.7014H97.7653C97.4746 35.7014 97.2541 35.7441 97.1047 35.8299C96.9548 35.9153 96.8541 36.033 96.8031 36.1824C96.7517 36.3323 96.726 36.5052 96.726 36.7022C96.726 36.8986 96.7517 37.0699 96.8031 37.2149C96.8541 37.3605 96.9548 37.4759 97.1047 37.5613C97.2541 37.6471 97.4746 37.6898 97.7653 37.6898H102.282C102.581 37.6898 102.805 37.6471 102.955 37.5613C103.105 37.4759 103.205 37.3605 103.256 37.2149C103.308 37.0699 103.333 36.8986 103.333 36.7022ZM103.937 31.4557C103.937 31.7293 103.915 31.986 103.872 32.2251C103.829 32.4648 103.746 32.6721 103.622 32.8473C103.498 33.0229 103.314 33.1618 103.07 33.2642C102.827 33.3671 102.499 33.4185 102.089 33.4185H96.2V32.4177H102.32C102.594 32.4177 102.801 32.3728 102.942 32.2831C103.083 32.1933 103.179 32.0757 103.231 31.9302C103.282 31.7851 103.308 31.6265 103.308 31.4557C103.308 31.2845 103.282 31.1242 103.231 30.9747C103.179 30.8249 103.083 30.7055 102.942 30.6153C102.801 30.5256 102.594 30.4807 102.32 30.4807H96.2V29.5061H102.089C102.491 29.5061 102.816 29.5553 103.064 29.6533C103.312 29.7518 103.498 29.8886 103.622 30.0638C103.746 30.2393 103.829 30.4467 103.872 30.6859C103.915 30.9255 103.937 31.1821 103.937 31.4557ZM103.782 28.0819H96.2V25.632C96.2 25.1789 96.3046 24.8217 96.5142 24.5612C96.7238 24.3002 97.0423 24.1699 97.4703 24.1699H98.8429C99.1423 24.1699 99.4247 24.2104 99.6896 24.2915C99.955 24.3729 100.169 24.5289 100.331 24.7598C100.494 24.9907 100.575 25.324 100.575 25.7601V27.0432H103.782V28.0819ZM99.9977 27.0432V26.0812C99.9977 25.7732 99.8949 25.5423 99.6896 25.3885C99.4844 25.2343 99.1593 25.1576 98.7148 25.1576H97.8677C97.4829 25.1576 97.2027 25.2282 97.0275 25.3689C96.8524 25.5101 96.7643 25.6878 96.7643 25.9013V27.0432H99.9977Z" fill="#2B2A29"/>
<path fill-rule="evenodd" clip-rule="evenodd" d="M45.6245 39.7607L19.7178 72.3297L42.6652 35.3635L30.7505 17.661H38.2187L46.666 30.212L70.5106 0.234863L49.3899 34.259L63.7815 55.6416H56.3134L45.6245 39.7607Z" fill="url(#paint0_radial_651_26)"/>
</g>
<defs>
<radialGradient id="paint0_radial_651_26" cx="0" cy="0" r="1" gradientUnits="userSpaceOnUse" gradientTransform="translate(45.1142 36.2823) rotate(90) scale(36.0474 25.3964)">
<stop stop-color="#62D8D8"/>
<stop offset="1" stop-color="#135454"/>
</radialGradient>
<clipPath id="clip0_651_26">
<rect width="103.471" height="72.5968" fill="white" transform="translate(0.516602)"/>
</clipPath>
</defs>
</svg>
