<svg width="1087" height="25" viewBox="0 0 1087 25" fill="none" xmlns="http://www.w3.org/2000/svg">
<path d="M489.4 24C492.83 24 495.611 21.1395 495.611 17.6112C495.611 14.7887 493.386 12.5 490.642 12.5C488.447 12.5 486.667 14.3311 486.667 16.5891C486.667 18.3961 488.091 19.8596 489.847 19.8596C491.252 19.8596 492.391 18.6889 492.391 17.2429" stroke="#8DABB4" stroke-width="1.5" stroke-miterlimit="10" stroke-linecap="round" stroke-linejoin="round"/>
<path d="M538.828 15.0763C538.828 16.293 537.859 17.2792 536.662 17.2792C535.167 17.2792 533.955 16.0462 533.955 14.5262C533.955 12.6252 535.47 11.085 537.339 11.085C539.676 11.085 541.359 13.0203 541.57 15.3865C541.982 20.013 539.273 23.6636 533.99 23.6636C519.992 23.6636 514.559 1 494.176 1C483.843 1 478.862 8.69494 479.003 15.0294C479.115 20.0972 483.247 24.1124 488.231 23.9976" stroke="#8DABB4" stroke-width="1.5" stroke-miterlimit="10" stroke-linecap="round" stroke-linejoin="round"/>
<path d="M498.834 18.9312C499.609 18.0415 500.864 18.0415 501.639 18.9312C502.607 20.0429 502.607 21.8455 501.639 22.958C500.428 24.3473 497.911 24.3473 496.7 22.958C495.188 21.2202 495.31 18.5334 496.7 16.6661C502.257 9.20178 515.103 9.61627 520.093 16.6661C521.442 18.5727 521.605 21.2202 520.093 22.958C518.883 24.3473 516.365 24.3473 515.155 22.958C514.187 21.8455 514.187 20.0429 515.155 18.9312C515.929 18.0415 517.185 18.0415 517.96 18.9312" stroke="#8DABB4" stroke-width="1.5" stroke-miterlimit="10" stroke-linecap="round" stroke-linejoin="round"/>
<path d="M597.656 24C594.226 24 591.445 21.1395 591.445 17.6112C591.445 14.7887 593.67 12.5 596.414 12.5C598.609 12.5 600.389 14.3311 600.389 16.5891C600.389 18.3961 598.965 19.8596 597.209 19.8596C595.804 19.8596 594.665 18.6889 594.665 17.2429" stroke="#8DABB4" stroke-width="1.5" stroke-miterlimit="10" stroke-linecap="round" stroke-linejoin="round"/>
<path d="M548.228 15.0763C548.228 16.293 549.197 17.2792 550.393 17.2792C551.888 17.2792 553.101 16.0462 553.101 14.5262C553.101 12.6252 551.586 11.085 549.717 11.085C547.38 11.085 545.697 13.0203 545.485 15.3865C545.074 20.013 547.782 23.6636 553.065 23.6636C567.064 23.6636 572.496 1 592.88 1C603.212 1 608.194 8.69494 608.053 15.0294C607.941 20.0972 603.809 24.1124 598.825 23.9976" stroke="#8DABB4" stroke-width="1.5" stroke-miterlimit="10" stroke-linecap="round" stroke-linejoin="round"/>
<path d="M588.222 18.9312C587.447 18.0415 586.192 18.0415 585.417 18.9312C584.449 20.0429 584.449 21.8455 585.417 22.958C586.627 24.3473 589.144 24.3473 590.355 22.958C591.868 21.2202 591.746 18.5334 590.355 16.6661C584.798 9.20178 571.952 9.61627 566.963 16.6661C565.614 18.5727 565.45 21.2202 566.963 22.958C568.173 24.3473 570.691 24.3473 571.901 22.958C572.869 21.8455 572.869 20.0429 571.901 18.9312C571.126 18.0415 569.87 18.0415 569.096 18.9312" stroke="#8DABB4" stroke-width="1.5" stroke-miterlimit="10" stroke-linecap="round" stroke-linejoin="round"/>
<mask id="path-7-inside-1_896_1726" fill="white">
<path d="M610 14H1087V13H610V14Z"/>
</mask>
<path d="M610 14H1087V13H610V14Z" fill="#494949"/>
<path d="M610 14H608V16H610V14ZM1087 14V16H1089V14H1087ZM1087 13H1089V11H1087V13ZM610 13V11H608V13H610ZM610 16H1087V12H610V16ZM1089 14V13H1085V14H1089ZM1087 11H610V15H1087V11ZM608 13V14H612V13H608Z" fill="#8DABB4" mask="url(#path-7-inside-1_896_1726)"/>
<mask id="path-9-inside-2_896_1726" fill="white">
<path d="M476 14H0V13H476V14Z"/>
</mask>
<path d="M476 14H0V13H476V14Z" fill="#494949"/>
<path d="M476 14H478V16H476V14ZM0 14V16H-2V14H0ZM0 13H-2V11H0V13ZM476 13V11H478V13H476ZM476 16H0V12H476V16ZM-2 14V13H2V14H-2ZM0 11H476V15H0V11ZM478 13V14H474V13H478Z" fill="#8DABB4" mask="url(#path-9-inside-2_896_1726)"/>
</svg>
