<svg width="118" height="26" viewBox="0 0 118 26" fill="none" xmlns="http://www.w3.org/2000/svg">
<path d="M13.765 19.8765C16.8217 19.4839 19.2896 16.991 19.6785 13.9036C20.2483 9.37451 16.46 5.54794 11.9758 6.12367C8.91916 6.51603 6.45102 9.00898 6.06257 12.0964C5.49232 16.6257 9.28104 20.4523 13.765 19.8765ZM14.1837 0.0657917C20.2071 0.668355 25.0793 5.58954 25.6758 11.674C26.482 19.8955 19.6973 26.7484 11.5571 25.9342C5.53375 25.3316 0.661568 20.4107 0.0652473 14.3265C-0.741382 6.10472 6.04356 -0.74821 14.1837 0.0657917ZM32.5819 0.580235H51.4229C52.1381 0.580235 52.5446 1.40728 52.1125 1.98277L39.0783 19.352H49.2908C51.1521 19.352 52.618 21.0627 52.2315 23.0122C51.9481 24.4415 50.6211 25.418 49.1777 25.418H28.7164C28.0077 25.418 27.6049 24.5988 28.0328 24.0285L41.0771 6.64624H32.695C31.2516 6.64624 29.9247 5.67002 29.6412 4.24041C29.2547 2.29094 30.7206 0.580235 32.5819 0.580235ZM114.345 0.649402C116.288 0.236124 118 1.72259 118 3.61299V24.5432C118 25.2735 117.165 25.6809 116.599 25.227L100.346 12.2035V22.3904C100.346 24.2808 98.6336 25.767 96.6901 25.354C95.2962 25.0579 94.3399 23.7477 94.3399 22.3097V1.45503C94.3399 0.724722 95.1748 0.317106 95.7412 0.770998L111.995 13.795L111.994 3.69373C111.994 2.2555 112.951 0.945515 114.345 0.649402ZM72.0263 7.0931e-05C81.9763 7.0931e-05 90.0431 5.81894 90.0431 12.9965C90.0431 20.1741 81.9766 25.993 72.0263 25.993C62.0758 25.993 54.0092 20.1741 54.0092 12.9965C54.0092 5.81894 62.0755 7.0931e-05 72.0263 7.0931e-05ZM72.0263 6.06607C65.1517 6.06607 60.0151 9.72502 60.0151 12.9965C60.0151 16.2681 65.1517 19.927 72.0263 19.927C78.9007 19.927 84.0373 16.2681 84.0373 12.9965C84.0373 9.72527 78.9007 6.06607 72.0263 6.06607Z" fill="#005BFF"/>
</svg>
