<svg width="23" height="19" viewBox="0 0 23 19" fill="none" xmlns="http://www.w3.org/2000/svg">
<path fill-rule="evenodd" clip-rule="evenodd" d="M9.09144 0H13.4052C15.3339 0 16.8608 1.24754e-07 18.0559 0.160117C19.2845 0.325466 20.2797 0.672909 21.0646 1.4557C22.1425 2.53047 22.4041 4.0092 22.4868 5.97351V5.99862C22.4952 6.17025 22.5025 6.34502 22.4952 6.49258C22.4912 6.70428 22.4378 6.91212 22.3393 7.09955C22.2671 7.22506 22.172 7.33583 22.0588 7.42607C21.9735 7.49342 21.8848 7.55629 21.793 7.61444C21.6224 7.72223 21.3901 7.852 21.119 8.00374L21.0981 8.01421C20.8942 8.12738 20.7244 8.29303 20.6061 8.49397C20.4878 8.69491 20.4255 8.92384 20.4255 9.157C20.4255 9.39017 20.4878 9.61909 20.6061 9.82003C20.7244 10.021 20.8942 10.1866 21.0981 10.2998L21.119 10.3103C21.3911 10.462 21.6214 10.5918 21.793 10.6996C21.8819 10.7561 21.9751 10.8189 22.0588 10.8879C22.1362 10.9518 22.2524 11.0596 22.3393 11.2144C22.4648 11.4384 22.4889 11.6645 22.4962 11.8214C22.5025 11.9679 22.4952 12.1438 22.4879 12.3154L22.4868 12.3405C22.4031 14.3038 22.1415 15.7835 21.0646 16.8583C20.2797 17.6411 19.2855 17.9885 18.0559 18.1539C16.8608 18.314 15.3339 18.314 13.4052 18.314H9.09248C7.16376 18.314 5.63689 18.314 4.44177 18.1539C3.21212 17.9885 2.21793 17.6411 1.43304 16.8583C0.355132 15.7835 0.0935035 14.3048 0.0108289 12.3405V12.3154C0.00121058 12.1509 -0.00193134 11.9861 0.00141031 11.8214C0.00873592 11.6645 0.0328057 11.4384 0.158387 11.2144C0.230516 11.0889 0.325668 10.9782 0.438853 10.8879C0.524138 10.8206 0.612863 10.7577 0.704668 10.6996C0.87525 10.5918 1.10758 10.462 1.37862 10.3103L1.39955 10.2998C1.60341 10.1866 1.77328 10.021 1.89156 9.82003C2.00983 9.61909 2.0722 9.39017 2.0722 9.157C2.0722 8.92384 2.00983 8.69491 1.89156 8.49397C1.77328 8.29303 1.60341 8.12738 1.39955 8.01421L1.37862 8.00374C1.10653 7.852 0.876296 7.72223 0.704668 7.61444C0.61208 7.55747 0.523288 7.49454 0.438853 7.42607C0.325668 7.33583 0.230516 7.22506 0.158387 7.09955C0.0595203 6.91221 0.00576743 6.70436 0.00141031 6.49258C-0.00225896 6.31948 0.0012324 6.14631 0.0118755 5.97351C0.0935036 4.01024 0.355132 2.53047 1.43304 1.4557C2.21793 0.672909 3.21212 0.325466 4.44177 0.160117C5.63585 1.24754e-07 7.16166 0 9.09144 0ZM20.9286 12.0098V12.0307L20.9191 12.2746C20.8375 14.2169 20.5727 15.1336 19.9564 15.7469C19.5126 16.1906 18.9036 16.4564 17.8476 16.5977C16.7697 16.7421 15.3475 16.7442 13.3476 16.7442H9.15109C7.1512 16.7442 5.72899 16.7421 4.65108 16.5977C3.5941 16.4564 2.98607 16.1906 2.5413 15.7469C1.92595 15.1336 1.66118 14.2169 1.57851 12.2746L1.57014 12.0098C1.6999 11.9292 1.88723 11.8246 2.16456 11.6697C2.612 11.4202 2.98471 11.0558 3.24417 10.614C3.50363 10.1723 3.64042 9.6693 3.64042 9.157C3.64042 8.64471 3.50363 8.1417 3.24417 7.69997C2.98471 7.25824 2.612 6.8938 2.16456 6.64432C1.96425 6.53477 1.76608 6.42138 1.57014 6.3042V6.28327L1.57955 6.03944C1.66118 4.0971 1.92595 3.18036 2.54235 2.5671C2.98607 2.12338 3.5941 1.85756 4.65108 1.71628C5.72899 1.57186 7.1512 1.56977 9.15109 1.56977H13.3476C15.3475 1.56977 16.7697 1.57186 17.8476 1.71628C18.9046 1.85756 19.5126 2.12338 19.9574 2.5671C20.5717 3.18036 20.8375 4.0971 20.9191 6.03944L20.9286 6.28327V6.3042C20.7988 6.38479 20.6115 6.48944 20.3341 6.64432C19.8864 6.89357 19.5134 7.25793 19.2538 7.69969C18.9941 8.14145 18.8572 8.64457 18.8572 9.157C18.8572 9.66943 18.9941 10.1726 19.2538 10.6143C19.5134 11.0561 19.8864 11.4204 20.3341 11.6697C20.6104 11.8246 20.7988 11.9292 20.9286 12.0098ZM14.9425 5.46281C15.0895 5.60997 15.172 5.80946 15.172 6.01746C15.172 6.22545 15.0895 6.42494 14.9425 6.57211L8.66341 12.8512C8.51462 12.9898 8.31783 13.0653 8.11449 13.0617C7.91115 13.0581 7.71714 12.9758 7.57334 12.832C7.42954 12.6882 7.34716 12.4942 7.34357 12.2908C7.33999 12.0875 7.41546 11.8907 7.55411 11.7419L13.8332 5.46281C13.9804 5.31582 14.1799 5.23326 14.3878 5.23326C14.5958 5.23326 14.7953 5.31582 14.9425 5.46281Z" fill="#228BA4"/>
<path d="M14.9115 11.7733C14.9115 12.0508 14.8013 12.317 14.605 12.5133C14.4088 12.7095 14.1426 12.8198 13.865 12.8198C13.5875 12.8198 13.3213 12.7095 13.125 12.5133C12.9288 12.317 12.8185 12.0508 12.8185 11.7733C12.8185 11.4957 12.9288 11.2296 13.125 11.0333C13.3213 10.837 13.5875 10.7268 13.865 10.7268C14.1426 10.7268 14.4088 10.837 14.605 11.0333C14.8013 11.2296 14.9115 11.4957 14.9115 11.7733ZM9.67897 6.54072C9.67897 6.81827 9.56871 7.08445 9.37245 7.28071C9.17619 7.47697 8.91001 7.58723 8.63245 7.58723C8.3549 7.58723 8.08871 7.47697 7.89245 7.28071C7.6962 7.08445 7.58594 6.81827 7.58594 6.54072C7.58594 6.26316 7.6962 5.99698 7.89245 5.80072C8.08871 5.60446 8.3549 5.4942 8.63245 5.4942C8.91001 5.4942 9.17619 5.60446 9.37245 5.80072C9.56871 5.99698 9.67897 6.26316 9.67897 6.54072Z" fill="#228BA4"/>
</svg>
