<svg width="54" height="54" viewBox="0 0 54 54" fill="none" xmlns="http://www.w3.org/2000/svg">
<path d="M52.8114 25.8042C52.8161 25.8042 52.8196 25.8042 52.8243 25.8042C53.1532 25.8042 53.4668 25.6663 53.6896 25.4246C53.916 25.1794 54.028 24.8505 53.9985 24.5181C52.8149 11.5 42.5082 1.18973 29.4889 0.00379898C29.1589 -0.0221358 28.8264 0.08514 28.5812 0.312659C28.336 0.538999 28.1993 0.858468 28.2028 1.19208C28.4079 18.4929 30.6902 25.5625 52.8114 25.8042ZM52.8114 28.1949C30.6902 28.4366 28.4091 35.5061 28.204 52.807C28.2005 53.1406 28.3372 53.4601 28.5824 53.6864C28.8017 53.888 29.0881 54 29.3828 54C29.4182 54 29.4548 53.9988 29.4901 53.9953C42.5094 52.8094 52.8161 42.5003 53.9985 29.481C54.028 29.1486 53.9171 28.8197 53.6896 28.5745C53.4621 28.3293 53.145 28.2079 52.8114 28.1949ZM24.4352 0.00969338C11.4572 1.22981 1.18349 11.5377 0.00581478 24.5204C-0.0236566 24.8529 0.0871558 25.1818 0.314674 25.427C0.537478 25.6686 0.852232 25.8054 1.17995 25.8054C1.18467 25.8054 1.18938 25.8054 1.1941 25.8054C23.2422 25.5519 25.5186 18.4859 25.726 1.1968C25.7296 0.863183 25.5916 0.542535 25.3464 0.316195C25.0989 0.0898554 24.7676 -0.0209568 24.4352 0.00969338ZM1.19292 28.1937C0.826297 28.1525 0.538657 28.3269 0.313496 28.5721C0.0871559 28.8173 -0.0248353 29.1462 0.00463601 29.4787C1.18231 42.4614 11.4572 52.7693 24.4352 53.9894C24.4717 53.9929 24.5095 53.9941 24.546 53.9941C24.8407 53.9941 25.126 53.8833 25.3453 53.6817C25.5905 53.4554 25.7284 53.1347 25.7249 52.8011C25.5174 35.5132 23.2422 28.4472 1.19292 28.1937Z" fill="black"/>
</svg>
