<svg width="54" height="54" viewBox="0 0 54 54" fill="none" xmlns="http://www.w3.org/2000/svg">
<path d="M27.0001 54.0001C41.9118 54.0001 54.0001 41.9118 54.0001 27.0001C54.0001 12.0883 41.9118 0 27.0001 0C12.0883 0 0 12.0883 0 27.0001C0 41.9118 12.0883 54.0001 27.0001 54.0001Z" fill="#D42428"/>
<path d="M46.0911 7.90527C56.6353 18.4504 56.6362 35.5465 46.0911 46.0916C35.5469 56.6357 18.4499 56.6362 7.90479 46.0916L46.0911 7.90527Z" fill="#CC202D"/>
<path d="M53.4573 32.4077L40.0941 19.0449L24.3336 20.8394L14.8003 35.5983L32.614 53.4116C43.0874 51.196 51.3213 42.9114 53.4573 32.4077Z" fill="#BA202E"/>
<path d="M41.1293 21.7899C41.1293 19.5265 39.2957 17.6919 37.0335 17.6919H17.8172C15.5555 17.6919 13.7222 19.5269 13.7222 21.7899V32.7788C13.7222 35.0422 15.5558 36.8768 17.8172 36.8768H37.0332C39.2958 36.8768 41.129 35.0417 41.129 32.7788V21.7899H41.1293ZM24.6842 31.9201V21.5989L32.5113 26.7597L24.6842 31.9201Z" fill="white"/>
</svg>
