<svg width="55" height="54" viewBox="0 0 55 54" fill="none" xmlns="http://www.w3.org/2000/svg">
<path d="M27 54C41.9117 54 54 41.9117 54 27C54 12.0883 41.9117 0 27 0C12.0883 0 0 12.0883 0 27C0 41.9117 12.0883 54 27 54Z" fill="#009FE3"/>
<path d="M54.0357 26.7897C54.0357 25.3368 53.9191 23.8861 53.6871 22.4518L47.7825 16.5468C47.5705 16.3367 47.1326 16.1512 46.242 16.1512C46.2271 16.1512 38.8941 16.2357 38.737 16.2971C38.1789 16.5066 37.3927 18.9755 35.875 21.6939L30.1807 16.0005C28.7957 14.5695 20.6436 14.5547 19.918 16.7349L22.3723 19.1926C22.6216 20.7114 22.6384 23.0403 22.4224 24.5014L14.4552 16.5344C14.4355 16.5146 14.4144 16.4964 14.392 16.4797C13.7152 15.9822 6.34142 15.8722 6.06516 16.7349C5.35484 17.4282 10.6134 26.8244 13.9809 31.2858C14.6376 32.1516 15.3513 32.9726 16.1173 33.7434L34.9764 52.6017C46.0126 49.2105 54.0357 38.9377 54.0357 26.7897Z" fill="url(#paint0_linear_654_135)"/>
<path d="M42.8082 30.9487C40.9416 28.9954 40.6902 28.7203 41.8001 26.9736C43.0229 25.1821 45.4386 22.45 46.8034 20.2635C47.6033 18.9823 47.9236 17.9781 47.9236 17.346C47.9236 17.2971 48.2062 16.3614 46.2064 16.3614C46.1915 16.3614 38.8585 16.4458 38.7014 16.5073C37.8672 16.8205 36.5234 22.1805 32.9882 25.8796C31.6646 27.2646 30.8671 27.0136 30.5238 24.7491C30.2374 22.8603 31.243 17.6676 30.2626 16.3614C29.324 14.7827 20.6327 14.6903 19.8824 16.9446C21.0025 17.2606 21.6995 17.6617 21.9733 18.148C22.5881 19.1888 22.7005 23.3041 22.3094 25.1499C21.6412 29.0643 19.0751 25.0283 18.9115 24.8217C17.5425 22.8768 16.2855 20.6158 15.1404 18.0386C14.8164 17.3093 14.5673 16.8445 14.3563 16.6894C13.6796 16.1918 6.30578 16.0819 6.02951 16.9446C5.3192 17.6378 10.5777 27.0341 13.9453 31.4954C19.4993 38.7761 25.1665 38.722 26.6776 38.6797C28.8458 38.6189 30.0132 38.3636 30.1876 38.0965C30.5599 37.8541 30.5064 35.4879 30.9343 34.4137C31.4342 33.2339 32.4406 32.536 34.1827 34.4137C34.8881 34.9301 36.8087 38.1829 39.3728 38.6805C39.9251 38.7875 48.0352 39.1846 48.0352 37.3311C48.0355 36.0464 46.0547 34.0805 42.8082 30.9487Z" fill="white"/>
<defs>
<linearGradient id="paint0_linear_654_135" x1="14.7862" y1="7.98132" x2="49.4066" y2="42.6018" gradientUnits="userSpaceOnUse">
<stop stop-color="#1D1D1B"/>
<stop offset="0.369" stop-color="#1D1D1B" stop-opacity="0.856"/>
<stop offset="0.75" stop-color="#1D1D1B" stop-opacity="0.429"/>
<stop offset="1" stop-color="#1D1D1B" stop-opacity="0"/>
</linearGradient>
</defs>
</svg>
