<svg width="29" height="28" viewBox="0 0 29 28" fill="none" xmlns="http://www.w3.org/2000/svg">
<path d="M27.589 13.2846C27.5914 13.2846 27.5932 13.2846 27.5956 13.2846C27.765 13.2846 27.9264 13.2136 28.0411 13.0891C28.1576 12.9629 28.2153 12.7936 28.2001 12.6224C27.5908 5.92054 22.2847 0.612671 15.5822 0.00213888C15.4123 -0.0112127 15.2411 0.0440144 15.1149 0.161144C14.9887 0.277668 14.9183 0.442135 14.9201 0.613885C15.0257 9.52062 16.2006 13.1601 27.589 13.2846ZM27.589 14.5153C16.2006 14.6397 15.0263 18.2793 14.9207 27.186C14.9189 27.3578 14.9893 27.5222 15.1155 27.6387C15.2284 27.7425 15.3759 27.8002 15.5276 27.8002C15.5458 27.8002 15.5646 27.7996 15.5828 27.7978C22.2853 27.1872 27.5914 21.88 28.2001 15.1775C28.2153 15.0063 28.1582 14.837 28.0411 14.7108C27.924 14.5845 27.7607 14.522 27.589 14.5153ZM12.9805 0.0051734C6.29921 0.633306 1.01016 5.93996 0.403872 12.6237C0.3887 12.7948 0.445748 12.9641 0.562878 13.0904C0.67758 13.2148 0.83962 13.2852 1.00834 13.2852C1.01076 13.2852 1.01319 13.2852 1.01562 13.2852C12.3663 13.1547 13.5382 9.51698 13.645 0.616313C13.6468 0.444563 13.5758 0.279488 13.4496 0.162965C13.3222 0.046442 13.1516 -0.0106058 12.9805 0.0051734ZM1.01501 14.5147C0.826269 14.4935 0.678187 14.5833 0.562271 14.7095C0.445748 14.8358 0.388093 15.0051 0.403266 15.1762C1.00955 21.8599 6.29921 27.1666 12.9805 27.7947C12.9993 27.7965 13.0187 27.7971 13.0375 27.7971C13.1892 27.7971 13.3361 27.7401 13.449 27.6363C13.5752 27.5198 13.6462 27.3547 13.6444 27.183C13.5376 18.2829 12.3663 14.6452 1.01501 14.5147Z" fill="#B9CCD2"/>
</svg>
