<svg width="28" height="28" viewBox="0 0 28 28" fill="none" xmlns="http://www.w3.org/2000/svg">
<path d="M13.9 27.8002C21.5768 27.8002 27.8001 21.577 27.8001 13.9002C27.8001 6.22344 21.5768 0.000183105 13.9 0.000183105C6.22325 0.000183105 0 6.22344 0 13.9002C0 21.577 6.22325 27.8002 13.9 27.8002Z" fill="#B9CCD2"/>
<path d="M27.5208 16.6844L20.6412 9.80508L12.5275 10.7289L7.61963 18.327L16.7904 27.4975C22.1823 26.3569 26.4212 22.0919 27.5208 16.6844Z" fill="#A5BEC6"/>
<path d="M21.1741 11.2182C21.1741 10.053 20.2301 9.10854 19.0655 9.10854H9.17263C8.00827 9.10854 7.06445 10.0532 7.06445 11.2182V16.8755C7.06445 18.0407 8.00844 18.9852 9.17263 18.9852H19.0653C20.2301 18.9852 21.1739 18.0405 21.1739 16.8755V11.2182H21.1741ZM12.7079 16.4334V11.1199L16.7374 13.7768L12.7079 16.4334Z" fill="white"/>
</svg>
