<svg width="54" height="54" viewBox="0 0 54 54" fill="none" xmlns="http://www.w3.org/2000/svg">
<path d="M27 54C41.9117 54 54 41.9117 54 27C54 12.0883 41.9117 0 27 0C12.0883 0 0 12.0883 0 27C0 41.9117 12.0883 54 27 54Z" fill="#F2780C"/>
<path d="M27.5 54L12.5 41L14 31L17.5 16L32 11L53.5 30.5C53 43 40.5 54 27.5 54Z" fill="#D86804"/>
<path d="M37.3122 23.2507V18.5625C37.3122 13.5 32.0625 10.125 28.6875 10.125H20.1549C14.2486 10.125 10.125 14.3438 10.125 20.25V33.75C10.125 39.5642 14.2486 43.875 20.25 43.875H33.8451C39.7514 43.875 43.875 39.5795 43.875 33.75V30.375C43.875 25.3125 42.3747 23.2507 37.3122 23.2507ZM20.9066 18.5625H28.4052C29.0269 18.5625 29.6231 18.8095 30.0627 19.2491C30.5024 19.6887 30.7493 20.2849 30.7493 20.9066C30.7493 21.5283 30.5024 22.1245 30.0627 22.5641C29.6231 23.0037 29.0269 23.2507 28.4052 23.2507H20.9066C20.2849 23.2507 19.6887 23.0037 19.2491 22.5641C18.8095 22.1245 18.5625 21.5283 18.5625 20.9066C18.5625 20.2849 18.8095 19.6887 19.2491 19.2491C19.6887 18.8095 20.2849 18.5625 20.9066 18.5625ZM33.0934 35.4375H20.9066C20.2849 35.4375 19.6887 35.1905 19.2491 34.7509C18.8095 34.3113 18.5625 33.7151 18.5625 33.0934C18.5625 32.4717 18.8095 31.8755 19.2491 31.4359C19.6887 30.9963 20.2849 30.7493 20.9066 30.7493H33.0934C33.7151 30.7493 34.3113 30.9963 34.7509 31.4359C35.1905 31.8755 35.4375 32.4717 35.4375 33.0934C35.4375 33.7151 35.1905 34.3113 34.7509 34.7509C34.3113 35.1905 33.7151 35.4375 33.0934 35.4375Z" fill="white"/>
</svg>
