<svg width="29" height="28" viewBox="0 0 29 28" fill="none" xmlns="http://www.w3.org/2000/svg">
<path d="M14.7003 27.8002C22.377 27.8002 28.6003 21.5769 28.6003 13.9002C28.6003 6.22342 22.377 0.000183105 14.7003 0.000183105C7.02353 0.000183105 0.800293 6.22342 0.800293 13.9002C0.800293 21.5769 7.02353 27.8002 14.7003 27.8002Z" fill="#B9CCD2"/>
<path d="M28.6011 13.9001C28.601 13.1521 28.541 12.4053 28.4216 11.6669L25.3818 8.62688C25.2727 8.51874 25.0472 8.42322 24.5888 8.42322C24.5811 8.42322 20.806 8.4667 20.7251 8.49834C20.4377 8.6062 20.033 9.87722 19.2517 11.2767L16.3202 8.34566C15.6071 7.60896 11.4103 7.60134 11.0368 8.72374L12.3003 9.98897C12.4286 10.7709 12.4373 11.9698 12.3261 12.722L8.22447 8.62049C8.21431 8.61033 8.20342 8.60092 8.19189 8.59236C7.8435 8.33621 4.04735 8.27961 3.90513 8.72374C3.53945 9.08064 6.24661 13.9179 7.98027 16.2147C8.31835 16.6604 8.68578 17.0831 9.0801 17.48L18.7891 27.1885C24.4707 25.4427 28.6011 20.154 28.6011 13.9001Z" fill="#A5BEC6"/>
<path d="M22.8393 15.9332C21.8784 14.9277 21.7489 14.786 22.3203 13.8868C22.9498 12.9645 24.1935 11.558 24.8961 10.4323C25.3079 9.77276 25.4728 9.25579 25.4728 8.93037C25.4728 8.90518 25.6183 8.42346 24.5888 8.42346C24.5811 8.42346 20.806 8.46694 20.7251 8.49858C20.2956 8.65982 19.6038 11.4192 17.7838 13.3236C17.1025 14.0366 16.6919 13.9074 16.5152 12.7416C16.3677 11.7692 16.8854 9.09594 16.3807 8.42346C15.8975 7.61075 11.4231 7.56316 11.0368 8.7237C11.6135 8.88639 11.9723 9.0929 12.1132 9.34325C12.4297 9.87907 12.4876 11.9977 12.2863 12.9479C11.9423 14.9631 10.6212 12.8853 10.537 12.7789C9.8322 11.7777 9.18505 10.6137 8.59554 9.28693C8.42874 8.91146 8.30053 8.67216 8.19189 8.59232C7.8435 8.33617 4.04735 8.27957 3.90513 8.7237C3.53945 9.0806 6.24661 13.9179 7.98027 16.2147C10.8396 19.9629 13.7571 19.9351 14.5351 19.9133C15.6513 19.882 16.2523 19.7505 16.3421 19.613C16.5337 19.4883 16.5062 18.2701 16.7265 17.7171C16.9839 17.1097 17.5019 16.7504 18.3988 17.7171C18.7619 17.9829 19.7507 19.6575 21.0707 19.9136C21.3551 19.9687 25.5303 20.1732 25.5303 19.219C25.5304 18.5576 24.5107 17.5455 22.8393 15.9332Z" fill="white"/>
</svg>
