<svg width="29" height="28" viewBox="0 0 29 28" fill="none" xmlns="http://www.w3.org/2000/svg">
<path d="M14.5011 27.8002C22.1778 27.8002 28.4011 21.5769 28.4011 13.9002C28.4011 6.22342 22.1778 0.000183105 14.5011 0.000183105C6.82432 0.000183105 0.601074 6.22342 0.601074 13.9002C0.601074 21.5769 6.82432 27.8002 14.5011 27.8002Z" fill="#B9CCD2"/>
<path d="M14.7584 27.7998L7.03613 21.1072L7.80835 15.9591L9.61021 8.23687L17.075 5.6628L28.1435 15.7017C27.8861 22.1369 21.4509 27.7998 14.7584 27.7998Z" fill="#A5BEC6"/>
<path d="M19.8098 11.9709V9.55731C19.8098 6.95106 17.1072 5.21356 15.3697 5.21356H10.977C7.93639 5.21356 5.81348 7.38544 5.81348 10.4261V17.3761C5.81348 20.3693 7.93639 22.5886 11.026 22.5886H18.0249C21.0656 22.5886 23.1885 20.3772 23.1885 17.3761V15.6386C23.1885 13.0323 22.4161 11.9709 19.8098 11.9709ZM11.364 9.55731H15.2244C15.5445 9.55731 15.8514 9.68445 16.0777 9.91077C16.304 10.1371 16.4312 10.444 16.4312 10.7641C16.4312 11.0841 16.304 11.3911 16.0777 11.6174C15.8514 11.8437 15.5445 11.9709 15.2244 11.9709H11.364C11.0439 11.9709 10.737 11.8437 10.5107 11.6174C10.2844 11.3911 10.1572 11.0841 10.1572 10.7641C10.1572 10.444 10.2844 10.1371 10.5107 9.91077C10.737 9.68445 11.0439 9.55731 11.364 9.55731ZM17.638 18.2448H11.364C11.0439 18.2448 10.737 18.1177 10.5107 17.8914C10.2844 17.665 10.1572 17.3581 10.1572 17.038C10.1572 16.718 10.2844 16.411 10.5107 16.1847C10.737 15.9584 11.0439 15.8313 11.364 15.8313H17.638C17.958 15.8313 18.265 15.9584 18.4913 16.1847C18.7176 16.411 18.8447 16.718 18.8447 17.038C18.8447 17.3581 18.7176 17.665 18.4913 17.8914C18.265 18.1177 17.958 18.2448 17.638 18.2448Z" fill="white"/>
</svg>
