<svg width="13" height="12" viewBox="0 0 13 12" fill="none" xmlns="http://www.w3.org/2000/svg">
<mask id="mask0_828_314" style="mask-type:alpha" maskUnits="userSpaceOnUse" x="-1" y="0" width="14" height="12">
<path d="M5.99749 0.54995C6.15644 0.238186 6.23591 0.0823037 6.34379 0.0324993C6.43766 -0.0108331 6.54671 -0.0108331 6.64058 0.0324993C6.74847 0.0823037 6.82794 0.238186 6.98688 0.54995L8.49481 3.50774C8.54173 3.59978 8.56519 3.6458 8.59948 3.68153C8.62984 3.71316 8.66625 3.7388 8.70669 3.75701C8.75237 3.77757 8.80481 3.78499 8.90971 3.79984L12.2827 4.27718C12.6379 4.32745 12.8155 4.35258 12.8977 4.43658C12.9692 4.50966 13.0028 4.61008 12.9892 4.70988C12.9736 4.82459 12.845 4.94584 12.5878 5.18834L10.148 7.48918C10.072 7.56091 10.034 7.59677 10.0094 7.63944C9.98769 7.67722 9.97375 7.71873 9.96837 7.76165C9.9623 7.81014 9.97128 7.8608 9.98922 7.96211L10.5649 11.2119C10.6256 11.5547 10.656 11.7261 10.5989 11.8278C10.5493 11.9163 10.461 11.9784 10.3588 11.9967C10.2413 12.0178 10.0823 11.9369 9.76439 11.775L6.74897 10.2396C6.65501 10.1918 6.60804 10.1679 6.55854 10.1585C6.51472 10.1501 6.46965 10.1501 6.42583 10.1585C6.37634 10.1679 6.32936 10.1918 6.23541 10.2396L3.21999 11.775C2.90208 11.9369 2.74312 12.0178 2.62559 11.9967C2.52333 11.9784 2.43509 11.9163 2.38545 11.8278C2.32839 11.7261 2.35875 11.5547 2.41947 11.2119L2.99515 7.96211C3.0131 7.8608 3.02207 7.81014 3.016 7.76165C3.01063 7.71873 2.99669 7.67722 2.97496 7.63944C2.95042 7.59677 2.91239 7.56091 2.83634 7.48918L0.396526 5.18834C0.139378 4.94584 0.0108038 4.82459 -0.00484204 4.70988C-0.0184548 4.61008 0.0151751 4.50966 0.0866843 4.43658C0.168874 4.35258 0.34647 4.32745 0.701662 4.27718L4.07466 3.79984C4.17956 3.78499 4.23201 3.77757 4.27769 3.75701C4.31813 3.7388 4.35454 3.71316 4.3849 3.68153C4.41918 3.6458 4.44265 3.59978 4.48957 3.50774L5.99749 0.54995Z" fill="#FFD234"/>
<path d="M5.99749 0.54995C6.15644 0.238186 6.23591 0.0823037 6.34379 0.0324993C6.43766 -0.0108331 6.54671 -0.0108331 6.64058 0.0324993C6.74847 0.0823037 6.82794 0.238186 6.98688 0.54995L8.49481 3.50774C8.54173 3.59978 8.56519 3.6458 8.59948 3.68153C8.62984 3.71316 8.66625 3.7388 8.70669 3.75701C8.75237 3.77757 8.80481 3.78499 8.90971 3.79984L12.2827 4.27718C12.6379 4.32745 12.8155 4.35258 12.8977 4.43658C12.9692 4.50966 13.0028 4.61008 12.9892 4.70988C12.9736 4.82459 12.845 4.94584 12.5878 5.18834L10.148 7.48918C10.072 7.56091 10.034 7.59677 10.0094 7.63944C9.98769 7.67722 9.97375 7.71873 9.96837 7.76165C9.9623 7.81014 9.97128 7.8608 9.98922 7.96211L10.5649 11.2119C10.6256 11.5547 10.656 11.7261 10.5989 11.8278C10.5493 11.9163 10.461 11.9784 10.3588 11.9967C10.2413 12.0178 10.0823 11.9369 9.76439 11.775L6.74897 10.2396C6.65501 10.1918 6.60804 10.1679 6.55854 10.1585C6.51472 10.1501 6.46965 10.1501 6.42583 10.1585C6.37634 10.1679 6.32936 10.1918 6.23541 10.2396L3.21999 11.775C2.90208 11.9369 2.74312 12.0178 2.62559 11.9967C2.52333 11.9784 2.43509 11.9163 2.38545 11.8278C2.32839 11.7261 2.35875 11.5547 2.41947 11.2119L2.99515 7.96211C3.0131 7.8608 3.02207 7.81014 3.016 7.76165C3.01063 7.71873 2.99669 7.67722 2.97496 7.63944C2.95042 7.59677 2.91239 7.56091 2.83634 7.48918L0.396526 5.18834C0.139378 4.94584 0.0108038 4.82459 -0.00484204 4.70988C-0.0184548 4.61008 0.0151751 4.50966 0.0866843 4.43658C0.168874 4.35258 0.34647 4.32745 0.701662 4.27718L4.07466 3.79984C4.17956 3.78499 4.23201 3.77757 4.27769 3.75701C4.31813 3.7388 4.35454 3.71316 4.3849 3.68153C4.41918 3.6458 4.44265 3.59978 4.48957 3.50774L5.99749 0.54995Z" fill="#FFD234"/>
</mask>
<g mask="url(#mask0_828_314)">
<rect x="-1.00781" y="-1" width="16" height="16" fill="#FFD234"/>
<rect x="-3.00781" y="-1" width="16" height="16" fill="#BCCFDF"/>
</g>
</svg>
