<svg width="13" height="12" viewBox="0 0 13 12" fill="none" xmlns="http://www.w3.org/2000/svg">
<path d="M6.00531 0.54995C6.16425 0.238186 6.24372 0.0823037 6.35161 0.0324993C6.44547 -0.0108331 6.55453 -0.0108331 6.64839 0.0324993C6.75628 0.0823037 6.83575 0.238186 6.99469 0.54995L8.50262 3.50774C8.54954 3.59978 8.573 3.6458 8.60729 3.68153C8.63765 3.71316 8.67406 3.7388 8.7145 3.75701C8.76018 3.77757 8.81263 3.78499 8.91752 3.79984L12.2905 4.27718C12.6457 4.32745 12.8233 4.35258 12.9055 4.43658C12.977 4.50966 13.0106 4.61008 12.997 4.70988C12.9814 4.82459 12.8528 4.94584 12.5957 5.18834L10.1558 7.48918C10.0798 7.56091 10.0418 7.59677 10.0172 7.63944C9.9955 7.67722 9.98156 7.71873 9.97619 7.76165C9.97011 7.81014 9.97909 7.8608 9.99704 7.96211L10.5727 11.2119C10.6334 11.5547 10.6638 11.7261 10.6067 11.8278C10.5571 11.9163 10.4689 11.9784 10.3666 11.9967C10.2491 12.0178 10.0901 11.9369 9.7722 11.775L6.75678 10.2396C6.66283 10.1918 6.61585 10.1679 6.56636 10.1585C6.52254 10.1501 6.47746 10.1501 6.43364 10.1585C6.38415 10.1679 6.33718 10.1918 6.24322 10.2396L3.2278 11.775C2.90989 11.9369 2.75093 12.0178 2.6334 11.9967C2.53114 11.9784 2.4429 11.9163 2.39326 11.8278C2.3362 11.7261 2.36656 11.5547 2.42728 11.2119L3.00296 7.96211C3.02091 7.8608 3.02989 7.81014 3.02381 7.76165C3.01844 7.71873 3.0045 7.67722 2.98277 7.63944C2.95823 7.59677 2.92021 7.56091 2.84415 7.48918L0.404339 5.18834C0.14719 4.94584 0.0186163 4.82459 0.00297046 4.70988C-0.0106423 4.61008 0.0229876 4.50966 0.0944968 4.43658C0.176686 4.35258 0.354282 4.32745 0.709474 4.27718L4.08248 3.79984C4.18737 3.78499 4.23982 3.77757 4.2855 3.75701C4.32594 3.7388 4.36235 3.71316 4.39271 3.68153C4.427 3.6458 4.45046 3.59978 4.49738 3.50774L6.00531 0.54995Z" fill="#FFD234"/>
<path d="M6.00531 0.54995C6.16425 0.238186 6.24372 0.0823037 6.35161 0.0324993C6.44547 -0.0108331 6.55453 -0.0108331 6.64839 0.0324993C6.75628 0.0823037 6.83575 0.238186 6.99469 0.54995L8.50262 3.50774C8.54954 3.59978 8.573 3.6458 8.60729 3.68153C8.63765 3.71316 8.67406 3.7388 8.7145 3.75701C8.76018 3.77757 8.81263 3.78499 8.91752 3.79984L12.2905 4.27718C12.6457 4.32745 12.8233 4.35258 12.9055 4.43658C12.977 4.50966 13.0106 4.61008 12.997 4.70988C12.9814 4.82459 12.8528 4.94584 12.5957 5.18834L10.1558 7.48918C10.0798 7.56091 10.0418 7.59677 10.0172 7.63944C9.9955 7.67722 9.98156 7.71873 9.97619 7.76165C9.97011 7.81014 9.97909 7.8608 9.99704 7.96211L10.5727 11.2119C10.6334 11.5547 10.6638 11.7261 10.6067 11.8278C10.5571 11.9163 10.4689 11.9784 10.3666 11.9967C10.2491 12.0178 10.0901 11.9369 9.7722 11.775L6.75678 10.2396C6.66283 10.1918 6.61585 10.1679 6.56636 10.1585C6.52254 10.1501 6.47746 10.1501 6.43364 10.1585C6.38415 10.1679 6.33718 10.1918 6.24322 10.2396L3.2278 11.775C2.90989 11.9369 2.75093 12.0178 2.6334 11.9967C2.53114 11.9784 2.4429 11.9163 2.39326 11.8278C2.3362 11.7261 2.36656 11.5547 2.42728 11.2119L3.00296 7.96211C3.02091 7.8608 3.02989 7.81014 3.02381 7.76165C3.01844 7.71873 3.0045 7.67722 2.98277 7.63944C2.95823 7.59677 2.92021 7.56091 2.84415 7.48918L0.404339 5.18834C0.14719 4.94584 0.0186163 4.82459 0.00297046 4.70988C-0.0106423 4.61008 0.0229876 4.50966 0.0944968 4.43658C0.176686 4.35258 0.354282 4.32745 0.709474 4.27718L4.08248 3.79984C4.18737 3.78499 4.23982 3.77757 4.2855 3.75701C4.32594 3.7388 4.36235 3.71316 4.39271 3.68153C4.427 3.6458 4.45046 3.59978 4.49738 3.50774L6.00531 0.54995Z" fill="#FFD234"/>
</svg>
