<svg width="113" height="60" viewBox="0 0 113 60" fill="none" xmlns="http://www.w3.org/2000/svg">
<path d="M36.9171 49.293C35.3057 49.293 34 50.6003 34 52.2138V55.5204C34 57.1324 35.3057 58.4397 36.9171 58.4397C38.527 58.4397 39.8342 57.1324 39.8342 55.5204V52.2138C39.8342 50.6003 38.527 49.293 36.9171 49.293Z" stroke="#494949" stroke-width="2" stroke-miterlimit="10" stroke-linejoin="round"/>
<path d="M36.917 42V51.1468" stroke="#494949" stroke-width="2" stroke-miterlimit="10" stroke-linejoin="round"/>
<path d="M17.8894 42C24.0253 42 29 36.7764 29 30.3335C29 25.1794 25.0197 21 20.1113 21C16.1845 21 13 24.3438 13 28.4671C13 31.7667 15.5478 34.4394 18.689 34.4394C21.2025 34.4394 23.2397 32.3015 23.2397 29.661" stroke="#494949" stroke-width="1.5" stroke-miterlimit="10" stroke-linecap="round" stroke-linejoin="round"/>
<path d="M107.066 26.0926C107.066 28.2614 105.348 30.0195 103.226 30.0195C100.576 30.0195 98.4261 27.8215 98.4261 25.1118C98.4261 21.7231 101.113 18.9776 104.426 18.9776C108.569 18.9776 111.553 22.4274 111.928 26.6454C112.657 34.8927 107.855 41.4004 98.4898 41.4004C73.6718 41.4004 64.0412 1 27.9042 1C9.58674 1 0.755573 14.7171 1.00514 26.0089C1.20402 35.0428 8.52866 42.2004 17.365 41.9957" stroke="#494949" stroke-width="1.5" stroke-miterlimit="10" stroke-linecap="round" stroke-linejoin="round"/>
<path d="M34.8008 32.2655C36.1952 30.7324 38.4547 30.7324 39.8491 32.2655C41.5914 34.1813 41.5914 37.2874 39.8491 39.2044C37.6705 41.5984 33.1399 41.5984 30.9601 39.2044C28.2378 36.2099 28.4577 31.58 30.9601 28.3623C40.963 15.4999 64.0856 16.2142 73.0668 28.3623C75.4955 31.6477 75.7891 36.2099 73.0668 39.2044C70.8883 41.5984 66.3564 41.5984 64.1779 39.2044C62.4355 37.2874 62.4355 34.1813 64.1779 32.2655C65.5722 30.7324 67.833 30.7324 69.2273 32.2655" stroke="#494949" stroke-width="1.5" stroke-miterlimit="10" stroke-linecap="round" stroke-linejoin="round"/>
<circle cx="28.5" cy="32.5" r="2.5" fill="#494949"/>
<circle cx="71.5" cy="26.5" r="2.5" fill="#494949"/>
</svg>
