<svg width="96" height="28" viewBox="0 0 96 28" fill="none" xmlns="http://www.w3.org/2000/svg">
<path d="M91.777 24.3811C93.6656 24.3811 95.0033 24.0377 96 23.2981V19.9434C94.977 20.6566 93.7442 21.1057 92.0131 21.1057C89.1016 21.1057 87.8951 18.834 87.8951 15.2415C87.8951 11.4642 89.3639 9.53585 92.0393 9.53585C93.6131 9.53585 95.1607 10.0906 95.9738 10.6189V7.13207C95.1082 6.6566 93.6131 6.31321 91.5672 6.31321C86.3475 6.31321 83.6459 10.0906 83.6459 15.3736C83.6721 21.1585 86.3213 24.3811 91.777 24.3811ZM66.2557 22.8491V19.4943C64.9967 20.366 62.8459 21.1321 60.8787 21.1321C57.8885 21.1321 56.7606 19.7057 56.577 16.8H66.4393V14.634C66.4393 8.58491 63.7901 6.31321 59.7246 6.31321C54.7409 6.31321 52.3803 10.1434 52.3803 15.4C52.3803 21.4491 55.3442 24.3811 60.5377 24.3811C63.1344 24.3811 65.0492 23.6679 66.2557 22.8491ZM28.8262 6.63019V13.4981H23.3704V6.63019H19.2786V24.0377H23.3704V16.7736H28.8262V24.0377H32.918V6.63019H28.8262ZM51.3573 20.7623H49.5475V6.63019H37.6393V8.10943C37.6393 12.3623 37.377 17.8566 35.9344 20.7623H34.6229V28H38.3999V24.0377H47.5541V28H51.3311V20.7623H51.3573ZM79.2918 24.0377H83.9344L77.377 14.6604L83.1475 6.63019H79.0295L73.259 14.6604V6.63019H69.1672V24.0377H73.259V15.4792L79.2918 24.0377ZM59.6196 9.53585C61.6393 9.53585 62.2688 11.2264 62.2688 13.4189V13.7623H56.577C56.6819 10.9887 57.6787 9.53585 59.6196 9.53585ZM45.4557 20.7623H39.6852C40.8131 18.1472 41.1278 13.3925 41.1278 10.3811V9.85283H45.4557V20.7623Z" fill="black"/>
<path d="M15.8689 24.0377H11.6984V3.24906H9.83607C6.42624 3.24906 4.64263 4.96604 4.64263 7.5283C4.64263 10.434 5.87541 11.7811 8.41968 13.4981L10.518 14.9245L4.48525 24.0377H0L5.42951 15.9019C2.3082 13.6566 0.55082 11.4642 0.55082 7.76604C0.55082 3.1434 3.75082 0 9.80985 0H15.8426V24.0377H15.8689Z" fill="#FC3F1D"/>
</svg>
